<svg width="479" height="97" viewBox="0 0 479 97" fill="none" xmlns="http://www.w3.org/2000/svg">
<path fill-rule="evenodd" clip-rule="evenodd" d="M129.322 5.75C128.261 13.173 128.255 82.02 129.314 88.25C129.759 90.863 130.509 93 130.982 93C132.724 93 133.5 78.675 133.5 46.5C133.5 14.388 132.724 0 130.992 0C130.526 0 129.774 2.587 129.322 5.75ZM3.75 19.728L0 20.121V46.092C0 69.902 0.146 72.119 1.75 72.739C2.712 73.11 8.45 73.434 14.5 73.457C27.363 73.507 32.76 71.906 38.019 66.481C40.991 63.414 41.454 62.221 41.8 56.743C42.136 51.413 41.862 50.08 39.929 47.629C38.683 46.05 36.201 44.146 34.412 43.399L31.16 42.04L34.58 38.62C41.18 32.02 38.111 22.79 28.421 20.1C24.704 19.068 11.907 18.875 3.75 19.728ZM92.807 20.75C89.936 24.092 89.854 25.994 92.537 27.014C93.911 27.537 95.478 29.126 96.018 30.547C98.221 36.343 96.077 52.675 92.266 59.127C90.578 61.984 87.43 63.763 86.214 62.547C85.864 62.197 84.201 52.594 82.519 41.206L79.459 20.5L73.23 20.202C68.647 19.983 66.994 20.248 66.976 21.202C66.962 21.916 67.934 28.35 69.134 35.5C71.525 49.739 71.277 53.804 67.691 59.138C65.616 62.225 61 64.36 61 62.233C61 61.735 59.65 52.18 58 41C56.35 29.82 55 20.522 55 20.336C55 20.151 52.026 20 48.392 20C42.043 20 41.805 20.088 42.33 22.25C42.631 23.487 44.485 34.4 46.45 46.5C48.416 58.6 50.244 69.483 50.514 70.683C51.601 75.522 61.069 74.739 67.073 69.315C69.186 67.406 71.189 64.979 71.525 63.922C72.593 60.557 73.721 61.84 74.436 67.231C75.233 73.239 76.002 73.972 81.5 73.963C96.482 73.938 106.849 56.375 105.857 32.696C105.548 25.315 105.172 23.811 103.076 21.58C100.196 18.515 95.082 18.102 92.807 20.75ZM159.75 19.671L156 20.121V38.953C156 55.204 156.217 57.869 157.582 58.393C158.452 58.727 162.839 58.99 167.332 58.978C180.668 58.942 187.455 54.462 187.455 45.695C187.455 42.332 186.864 41.222 183.561 38.366C181.419 36.515 180.199 35 180.85 35C181.5 35 182.731 33.535 183.585 31.745C185.49 27.75 184.344 23.927 180.485 21.398C177.807 19.644 167.287 18.767 159.75 19.671ZM305.831 20.25C303.33 22.265 302.799 24.989 304.767 25.715C307.409 26.69 307.968 28.053 307.985 33.568C308.011 42.135 303.726 53.059 301.294 50.627C300.932 50.265 299.681 43.338 298.515 35.234L296.395 20.5L291.364 20.204L286.334 19.907L288.027 30.67C289.181 38.011 289.434 42.466 288.822 44.683C287.94 47.877 285.6 51 284.088 51C283.488 51 278.936 24.002 278.988 20.75C278.995 20.337 276.75 20 274 20C270.661 20 269.004 20.415 269.012 21.25C269.018 21.938 270.363 30.375 272 40C273.637 49.625 274.982 57.838 274.988 58.25C274.995 58.662 277.07 59 279.6 59C283.524 59 284.714 58.486 287.7 55.5C289.625 53.575 291.351 52 291.537 52C291.722 52 292.014 53.463 292.187 55.25L292.5 58.5L298.209 58.477C303.136 58.457 304.334 58.054 306.961 55.537C315.083 47.756 318.711 26.711 312.928 20.928C310.708 18.708 308.059 18.455 305.831 20.25ZM243 25.826C243 27.926 242.428 28.916 241 29.29C239.769 29.612 239 30.654 239 32C239 33.346 239.769 34.388 241 34.71C242.801 35.181 243 36.074 243 43.666C243 54.237 244.477 57.513 249.9 58.973C254.026 60.084 256.413 59.63 259.25 57.193C262.227 54.636 261.391 53 257.107 53C252.363 53 252 52.247 252 42.418V35H256C259.778 35 260 34.833 260 32C260 29.175 259.77 29 256.066 29C252.519 29 252.102 28.73 251.816 26.25C251.533 23.789 251.053 23.468 247.25 23.193C243.144 22.895 243 22.984 243 25.826ZM371 25.536C371 27.346 370.366 28.353 369 28.71C367.583 29.081 367 30.074 367 32.117C367 34.333 367.462 35 369 35C370.856 35 371 35.667 371 44.277C371 54.869 372.105 57.383 377.405 58.846C381.846 60.072 385.723 59.233 387.529 56.655C389.705 53.548 389.414 53.145 384.75 52.807L380.5 52.5L380.211 43.75L379.922 35H383.461C386.727 35 387 34.768 387 32C387 29.249 386.715 29 383.566 29C380.564 29 380.093 28.655 379.816 26.25C379.533 23.789 379.053 23.468 375.25 23.193C371.241 22.902 371 23.036 371 25.536ZM174.023 27.023C177.029 30.029 174.523 34.002 168.75 35.381C166.003 36.037 166 36.032 166 30.519C166 25.053 166.029 25 169 25C170.678 25 172.891 25.891 174.023 27.023ZM22.497 27.434C26.39 29.061 27.832 32.577 26.004 35.992C24.715 38.402 17.76 41.944 14.25 41.978C12.102 41.999 12 41.636 12 34V26H15.532C17.475 26 20.609 26.645 22.497 27.434ZM197 29.695C193.001 31.757 188.987 38.684 189.022 43.462C189.058 48.406 192.397 54.464 196.476 56.985C203.576 61.374 215 59.528 215 53.992C215 52.563 214.229 52.368 210.146 52.76C207.454 53.019 204.336 52.715 203.146 52.078C200.74 50.791 197.431 46.236 198.282 45.385C198.586 45.081 202.584 44.301 207.167 43.653L215.5 42.474L215.806 38.815C216.5 30.507 205.638 25.239 197 29.695ZM223.5 29.549C219.494 31.602 218 33.753 218 37.469C218 41.535 220.246 44.575 225.066 47.034C227.775 48.416 229 49.7 229 51.159C229 53.142 228.616 53.243 223 52.734C216.545 52.148 215.778 52.81 218.464 56.645C221.555 61.059 232.066 60.275 235.946 55.341C238.171 52.513 238.612 48.013 236.967 44.938C236.398 43.875 234.231 42.138 232.15 41.076C230.069 40.015 227.828 38.498 227.171 37.706C225.316 35.471 228.232 33.614 232.505 34.307C235.569 34.804 236.067 34.583 236.591 32.493C236.92 31.185 236.894 29.638 236.535 29.057C235.555 27.471 226.92 27.797 223.5 29.549ZM325.071 29.752C319.511 32.587 317.5 36.192 317.5 43.323C317.5 53.539 323.211 59.207 333.656 59.358C339.257 59.439 343 57.269 343 53.94C343 52.416 342.256 52.256 337.25 52.704C332.088 53.166 331.219 52.957 328.75 50.657C323.558 45.821 324.533 45.037 338 43.223C342.998 42.55 343.528 42.238 343.81 39.808C344.834 30.972 334.039 25.179 325.071 29.752ZM351.213 29.507C349.058 30.443 347.41 32.168 346.43 34.513C344.426 39.31 345.985 42.528 352.239 46.5C354.837 48.15 356.971 50.077 356.982 50.782C357.001 52.117 353.241 53.948 351.5 53.452C346.213 51.945 345 52.015 345 53.826C345 60.292 358.57 61.501 363.75 55.497C368.367 50.145 365.821 43.913 357.25 39.588C355.462 38.687 354 37.565 354 37.097C354 35.108 357.105 33.797 360.368 34.409C363.481 34.993 363.801 34.819 364.287 32.278C364.578 30.757 364.606 29.171 364.349 28.756C363.564 27.485 354.7 27.991 351.213 29.507ZM395.5 29.347C390.396 31.694 386.969 37.578 387.022 43.899C387.06 48.445 390.539 54.552 394.476 56.985C401.647 61.417 413 59.521 413 53.892C413 52.33 412.365 52.169 408.159 52.668C405.287 53.008 402.441 52.771 401.159 52.085C398.743 50.792 395.428 46.238 396.282 45.385C396.586 45.081 400.584 44.301 405.167 43.653L413.5 42.474L413.806 38.815C414.274 33.207 409.974 28.868 403.441 28.355C400.54 28.128 397.261 28.537 395.5 29.347ZM417.389 28.989C414.576 30.113 413.669 32.716 415.695 33.849C417.017 34.589 417.294 36.532 417.234 44.626C417.133 58.369 417.347 59 422.108 59H426V50.174C426 42.129 426.214 41.147 428.422 39.073C429.754 37.822 431.963 36.731 433.331 36.649C435.344 36.528 435.924 35.85 436.372 33.094C436.676 31.22 436.69 29.308 436.403 28.844C435.421 27.254 432.153 28 429.193 30.491C426.322 32.907 426.191 32.925 424.866 31.084C423.168 28.725 420.159 27.882 417.389 28.989ZM450.732 30.407C447.352 32.701 447.161 32.724 446.686 30.907C446.298 29.423 445.28 29 442.094 29H438V44.057V59.115L442.25 58.807L446.5 58.5L447 49.103C447.465 40.355 447.685 39.568 450.172 37.716C454.932 34.171 456 35.747 456 46.314C456 54.127 456.305 55.966 457.829 57.345C460.244 59.531 464.284 59.448 466.345 57.171C468.397 54.904 468.441 54 466.5 54C465.261 54 465 52.162 465 43.455C465 33.591 464.841 32.75 462.545 30.455C459.404 27.313 455.316 27.296 450.732 30.407ZM207.02 35.524C208.718 37.57 207.926 38.141 202.549 38.747C197.733 39.29 197.387 39.013 199.035 35.934C200.295 33.581 205.198 33.329 207.02 35.524ZM334.655 35.543C335.46 37.642 334.83 38.079 330.083 38.716C326.952 39.136 326 38.93 326 37.832C326 34.25 333.407 32.292 334.655 35.543ZM404.933 35.874C405.827 37.545 405.397 37.854 400.968 38.73C396.615 39.591 396 39.507 396 38.056C396 34.008 403.016 32.294 404.933 35.874ZM175.171 41.655C177.297 43.579 177.563 47.848 175.715 50.375C175.005 51.347 172.545 52.386 170.215 52.698L166 53.263V46.632V40H169.671C171.69 40 174.165 40.745 175.171 41.655ZM24.928 48.463C27.981 50.041 29 51.812 29 55.535C29 62.036 24.284 66 16.55 66H12V56.5V47H17.05C19.827 47 23.372 47.658 24.928 48.463ZM472.243 52.157C469.164 55.236 472.145 59.682 476.548 58.577C478.74 58.027 479.076 57.454 478.811 54.716C478.561 52.13 478.009 51.443 475.993 51.207C474.614 51.046 472.927 51.473 472.243 52.157ZM477.683 55.188C477.364 55.985 477.127 55.748 477.079 54.583C477.036 53.529 477.272 52.939 477.604 53.271C477.936 53.603 477.972 54.466 477.683 55.188ZM476 57.5C476 57.775 475.775 58 475.5 58C475.225 58 475 57.775 475 57.5C475 57.225 475.225 57 475.5 57C475.775 57 476 57.225 476 57.5ZM265.479 74.227C264.401 78.524 265.633 94.153 267.125 95.098C270.905 97.492 271.604 95.415 271.03 83.5C270.529 73.095 270.38 72.483 268.285 72.185C266.657 71.953 265.914 72.494 265.479 74.227ZM299.315 73.985C296.6 75.106 294.657 78.58 295.322 81.125C295.598 82.181 295.158 84.381 294.343 86.015C292.591 89.526 293.302 92.496 296.376 94.511C298.099 95.64 300.476 95.824 306.917 95.327C314.991 94.704 315.169 94.636 312.999 92.999C311.129 91.589 310.946 90.969 311.881 89.222C312.497 88.072 313 86.272 313 85.221C313 82.653 309.699 79.794 307.645 80.583C305.87 81.264 305.354 84 307 84C307.55 84 308 84.988 308 86.196C308 88.23 307.741 88.141 304.5 85C299.475 80.129 299.799 77.382 305.33 77.961C306.712 78.106 307.079 77.584 306.83 75.826C306.463 73.237 303.113 72.416 299.315 73.985ZM196 84.5V95H199C201.889 95 202 94.833 202 90.5V86H206H210V90.5C210 94.833 210.111 95 213 95H216V84.5V74H213C210.167 74 210 74.222 210 78V82H206H202V78C202 74.222 201.833 74 199 74H196V84.5ZM323 84.5V95H325.5C327.75 95 328 94.6 328 91C328 86.237 329.275 85.835 331.02 90.047C332.639 93.958 337.228 96.484 340.009 94.995C342.321 93.758 342.649 92 340.568 92C339.781 92 338.154 90.621 336.954 88.936L334.772 85.871L336.886 83.621C341.84 78.348 338.353 74 329.171 74H323V84.5ZM238 77.417C238 78.196 237.438 79.037 236.75 79.286C235.75 79.648 235.75 80.162 236.75 81.856C237.438 83.02 238 85.779 238 87.986C238 93.888 241.748 97.185 246.418 95.393C248.684 94.523 248.373 92 246 92C243.791 92 243.81 92.039 243.505 86.801C243.326 83.724 243.642 83.051 245.385 82.801C248.263 82.388 248.849 79 246.042 79C244.884 79 243.678 78.325 243.362 77.5C242.624 75.578 238 75.506 238 77.417ZM404 77.417C404 78.196 403.438 79.037 402.75 79.286C401.75 79.648 401.75 80.162 402.75 81.856C403.438 83.02 404 85.934 404 88.331C404 91.284 404.59 93.224 405.829 94.345C407.977 96.289 411.107 96.493 412.8 94.8C413.733 93.867 414.267 93.867 415.2 94.8C417.051 96.651 421.778 96.222 424 94C426.823 91.177 426.485 88.419 423 85.842C419.344 83.139 419.196 82 422.5 82C424.078 82 425 81.435 425 80.469C425 76.858 418.014 77.523 415.49 81.375C413.548 84.339 414.423 86.65 418.236 88.622C422.314 90.731 420.54 92.201 414.39 91.81L409.5 91.5L409.193 87.25C408.923 83.527 409.14 83 410.943 83C412.333 83 413 82.352 413 81C413 79.667 412.333 79 411 79C409.889 79 409 78.333 409 77.5C409 76.567 408.056 76 406.5 76C405.01 76 404 76.572 404 77.417ZM332.5 80C332.5 81.831 331.898 82.585 330.25 82.82C328.327 83.093 328 82.683 328 80C328 77.317 328.327 76.907 330.25 77.18C331.898 77.415 332.5 78.169 332.5 80ZM221.635 80.073C219.435 81.803 219 82.946 219 87C219 91.054 219.435 92.197 221.635 93.927C227.416 98.475 235 94.44 235 86.818C235 79.267 227.482 75.473 221.635 80.073ZM251.328 80.394C247.903 83.34 247.442 89.621 250.41 92.901C253.901 96.758 263 96.488 263 92.528C263 91.5 262.119 91.269 259.704 91.661C257.353 92.042 256.009 91.715 255.018 90.522C253.83 89.09 253.836 88.716 255.064 87.939C255.854 87.439 257.962 87.024 259.75 87.015C262.894 87 263.45 86.326 263.062 83C262.803 80.785 259.118 78 256.445 78C255.162 78 252.859 79.077 251.328 80.394ZM275.519 80.39C274.134 81.775 273 83.401 273 84.002C273 85.287 277.876 90 279.205 90C279.707 90 279.84 90.45 279.5 91C279.16 91.55 277.559 92 275.941 92C272.8 92 272.264 92.864 274.2 94.8C276.051 96.651 280.778 96.222 283 94C285.823 91.177 285.485 88.419 282 85.842C278.322 83.123 278.198 82 281.573 82C283.484 82 284.061 81.549 283.815 80.25C283.272 77.385 278.442 77.467 275.519 80.39ZM344.328 80.394C340.903 83.34 340.442 89.621 343.41 92.901C346.901 96.758 356 96.488 356 92.528C356 91.5 355.119 91.269 352.704 91.661C350.353 92.042 349.009 91.715 348.018 90.522C346.83 89.09 346.836 88.716 348.064 87.939C348.854 87.439 350.962 87.024 352.75 87.015C355.677 87.002 356 86.708 356 84.057C356 78.308 349.225 76.182 344.328 80.394ZM361 79.265C357.182 81.222 357.154 85.315 360.941 88.114C364.832 90.992 364.838 92.35 360.956 91.78C357.316 91.246 356.399 92.257 358.562 94.419C363.1 98.957 371.757 92.675 368.235 87.4C367.831 86.795 366.488 85.766 365.25 85.115C362.216 83.517 362.415 82.2 365.75 81.816C369.25 81.414 369.447 78.598 366 78.241C364.625 78.099 362.375 78.56 361 79.265ZM375.315 79.007C370.434 80.974 369.35 89.441 373.455 93.545C378.978 99.069 387 94.966 387 86.618C387 82.977 386.51 81.76 384.365 80.073C381.576 77.879 378.898 77.563 375.315 79.007ZM397.288 79.511C395.923 80.467 394.902 80.65 394.507 80.011C394.163 79.455 392.731 79 391.324 79C389.16 79 388.859 79.346 389.37 81.25C389.701 82.487 389.979 86.088 389.986 89.25C390 94.946 390.027 95 392.948 95C395.799 95 395.905 94.828 396.198 89.75C396.447 85.422 396.895 84.327 398.75 83.513C400.13 82.908 401 81.65 401 80.263C401 77.608 400.228 77.451 397.288 79.511ZM229.031 84.059C230.619 87.025 229.308 92 226.94 92C224.722 92 223.464 88.27 224.411 84.5C225.171 81.47 227.526 81.245 229.031 84.059ZM258 83C258 83.55 257.1 84 256 84C254.9 84 254 83.55 254 83C254 82.45 254.9 82 256 82C257.1 82 258 82.45 258 83ZM351 83C351 83.55 350.1 84 349 84C347.9 84 347 83.55 347 83C347 82.45 347.9 82 349 82C350.1 82 351 82.45 351 83ZM381.589 84.5C382.436 87.873 381.295 92 379.516 92C376.57 92 374.868 85.532 377.2 83.2C379.124 81.276 380.913 81.806 381.589 84.5ZM302 89.5C304.22 91.863 304.24 92 302.374 92C300.116 92 298 90.21 298 88.3C298 86.316 299.405 86.738 302 89.5Z" fill="white"/>
</svg>
