<svg width="331" height="78" viewBox="0 0 331 78" fill="none" xmlns="http://www.w3.org/2000/svg">
<path fill-rule="evenodd" clip-rule="evenodd" d="M15.641 26.082L0 52.163V65.082V78H31.5C51.513 78 63 77.641 63 77.015C63 76.473 61.65 73.836 60 71.154C58.35 68.473 57 65.991 57 65.639C57 65.288 60.15 65 64 65C67.85 65 71 64.726 71 64.391C71 64.056 67.85 58.705 64 52.5C60.15 46.295 57 40.964 57 40.653C57 40.342 60.145 39.955 63.989 39.794L70.978 39.5L59.239 19.78C52.783 8.934 47.174 0.159001 46.776 0.280001C46.377 0.401001 44.512 2.944 42.63 5.932L39.208 11.364L35.573 5.682C33.574 2.557 31.791 0 31.611 0C31.43 0 24.244 11.737 15.641 26.082ZM93.75 11.546C93.338 11.979 93 24.228 93 38.765V65.197L118.75 64.827C151.003 64.363 152.218 63.941 154.48 52.417C155.413 47.666 153.497 40.778 150.639 38.61L148.147 36.72L150.217 33.921C153.055 30.082 153.102 20.963 150.303 17.18C146.601 12.176 144.482 11.78 118.596 11.251C105.343 10.98 94.162 11.112 93.75 11.546ZM160.714 11.619C160.321 12.012 160 24.183 160 38.667V65H164.016H168.033L167.766 38.25L167.5 11.5L164.464 11.203C162.794 11.039 161.107 11.227 160.714 11.619ZM175.667 11.667C175.3 12.033 175 24.183 175 38.667V65H179H183V41.758V18.516L206.258 41.758L229.516 65H235.774H242.033L241.766 38.25L241.5 11.5H238H234.5L234.231 34.25C234.083 46.763 233.63 57 233.223 57C232.816 57 222.141 46.65 209.5 34L186.516 11H181.425C178.625 11 176.033 11.3 175.667 11.667ZM249.667 11.667C249.3 12.033 249 24.21 249 38.727V65.121L252.75 64.81L256.5 64.5L257 41.74L257.5 18.98L280.492 41.99L303.484 65H309.758H316.033L315.766 38.25L315.5 11.5H312H308.5L308.231 34.25C308.083 46.763 307.63 57 307.223 57C306.816 57 296.141 46.65 283.5 34L260.516 11H255.425C252.625 11 250.033 11.3 249.667 11.667ZM323.714 11.619C323.321 12.012 323 24.21 323 38.727V65.121L326.75 64.81L330.5 64.5V38V11.5L327.464 11.203C325.794 11.039 324.107 11.227 323.714 11.619ZM47.896 26.25L55.961 39.5L48.462 40L40.964 40.5L48.391 52.5L55.818 64.5L32.261 64.768C19.304 64.916 8.495 64.829 8.241 64.574C7.672 64.005 38.237 13.051 39.166 13.022C39.532 13.01 43.46 18.962 47.896 26.25ZM142.429 20.571C144.387 22.53 144.477 28.965 142.582 31.559C141.274 33.35 139.61 33.524 121.082 33.808L101 34.117V26.558V19H120.929C137.712 19 141.105 19.248 142.429 20.571ZM144.582 43.441C146.151 45.59 146.466 52.716 145.087 54.893C143.737 57.025 136.113 57.875 117.75 57.94L101 58V49.444V40.888L122.082 41.194C141.602 41.477 143.27 41.644 144.582 43.441Z" fill="white"/>
</svg>
