<svg width="236" height="104" viewBox="0 0 236 104" fill="none" xmlns="http://www.w3.org/2000/svg">
<line x1="175.5" y1="52" x2="175.5" y2="104" stroke="url(#paint0_linear_3179_954)"/>
<line y1="-0.5" x2="20" y2="-0.5" transform="matrix(4.27439e-07 1 1 -4.47011e-09 75 84)" stroke="url(#paint1_linear_3179_954)"/>
<line y1="-0.5" x2="27" y2="-0.5" transform="matrix(3.15893e-07 1 1 -6.04856e-09 126 77)" stroke="url(#paint2_linear_3179_954)"/>
<line x1="224.5" y1="18" x2="224.5" y2="104" stroke="url(#paint3_linear_3179_954)"/>
<line y1="-0.5" x2="15" y2="-0.5" transform="matrix(5.49584e-07 1 1 -3.47663e-09 26 89)" stroke="url(#paint4_linear_3179_954)"/>
<line x1="162.5" y1="63.9875" x2="163.5" y2="103.988" stroke="url(#paint5_linear_3179_954)"/>
<line y1="-0.5" x2="19" y2="-0.5" transform="matrix(-4.21958e-07 1 1 4.52815e-09 63 85)" stroke="url(#paint6_linear_3179_954)"/>
<line y1="-0.5" x2="25" y2="-0.5" transform="matrix(-3.23182e-07 1 1 5.9121e-09 113 79)" stroke="url(#paint7_linear_3179_954)"/>
<line x1="212.5" y1="29" x2="212.5" y2="104" stroke="url(#paint8_linear_3179_954)"/>
<line y1="-0.5" x2="14" y2="-0.5" transform="matrix(-5.60589e-07 1 1 3.40835e-09 14 90)" stroke="url(#paint9_linear_3179_954)"/>
<line y1="-0.5" x2="31" y2="-0.5" transform="matrix(-2.44634e-07 1 1 7.81037e-09 150 73)" stroke="url(#paint10_linear_3179_954)"/>
<line y1="-0.5" x2="18" y2="-0.5" transform="matrix(-4.13684e-07 1 1 4.61871e-09 51 86)" stroke="url(#paint11_linear_3179_954)"/>
<line y1="-0.5" x2="23" y2="-0.5" transform="matrix(-3.22339e-07 1 1 5.92757e-09 100 81)" stroke="url(#paint12_linear_3179_954)"/>
<line x1="199.5" y1="47" x2="199.5" y2="104" stroke="url(#paint13_linear_3179_954)"/>
<line y1="-0.5" x2="13" y2="-0.5" transform="matrix(-5.64681e-07 1 1 3.38366e-09 1 91)" stroke="url(#paint14_linear_3179_954)"/>
<line y1="-0.5" x2="27" y2="-0.5" transform="matrix(-2.48975e-07 1 1 7.6742e-09 138 77)" stroke="url(#paint15_linear_3179_954)"/>
<line y1="-0.5" x2="104" y2="-0.5" transform="matrix(-6.62761e-08 1 1 2.88292e-08 236 0)" stroke="url(#paint16_linear_3179_954)"/>
<line y1="-0.5" x2="16" y2="-0.5" transform="matrix(-4.13684e-07 1 1 4.61871e-09 38 88)" stroke="url(#paint17_linear_3179_954)"/>
<line y1="-0.5" x2="21" y2="-0.5" transform="matrix(-3.20587e-07 1 1 5.95996e-09 88 83)" stroke="url(#paint18_linear_3179_954)"/>
<line x1="187.5" y1="61" x2="187.5" y2="104" stroke="url(#paint19_linear_3179_954)"/>
<defs>
<linearGradient id="paint0_linear_3179_954" x1="174.5" y1="52" x2="174.5" y2="104" gradientUnits="userSpaceOnUse">
<stop stop-color="white"/>
<stop offset="1" stop-color="#999999" stop-opacity="0"/>
</linearGradient>
<linearGradient id="paint1_linear_3179_954" x1="0" y1="0.5" x2="20" y2="0.5" gradientUnits="userSpaceOnUse">
<stop stop-color="white"/>
<stop offset="1" stop-color="#999999" stop-opacity="0"/>
</linearGradient>
<linearGradient id="paint2_linear_3179_954" x1="0" y1="0.5" x2="27" y2="0.5" gradientUnits="userSpaceOnUse">
<stop stop-color="white"/>
<stop offset="1" stop-color="#999999" stop-opacity="0"/>
</linearGradient>
<linearGradient id="paint3_linear_3179_954" x1="223.5" y1="18" x2="223.5" y2="104" gradientUnits="userSpaceOnUse">
<stop stop-color="white"/>
<stop offset="1" stop-color="#999999" stop-opacity="0"/>
</linearGradient>
<linearGradient id="paint4_linear_3179_954" x1="0" y1="0.5" x2="15" y2="0.5" gradientUnits="userSpaceOnUse">
<stop stop-color="white"/>
<stop offset="1" stop-color="#999999" stop-opacity="0"/>
</linearGradient>
<linearGradient id="paint5_linear_3179_954" x1="161.5" y1="64.0125" x2="162.5" y2="104.012" gradientUnits="userSpaceOnUse">
<stop stop-color="white"/>
<stop offset="1" stop-color="#999999" stop-opacity="0"/>
</linearGradient>
<linearGradient id="paint6_linear_3179_954" x1="0" y1="0.5" x2="19" y2="0.5" gradientUnits="userSpaceOnUse">
<stop stop-color="white"/>
<stop offset="1" stop-color="#999999" stop-opacity="0"/>
</linearGradient>
<linearGradient id="paint7_linear_3179_954" x1="0" y1="0.5" x2="25" y2="0.5" gradientUnits="userSpaceOnUse">
<stop stop-color="white"/>
<stop offset="1" stop-color="#999999" stop-opacity="0"/>
</linearGradient>
<linearGradient id="paint8_linear_3179_954" x1="211.5" y1="29" x2="211.5" y2="104" gradientUnits="userSpaceOnUse">
<stop stop-color="white"/>
<stop offset="1" stop-color="#999999" stop-opacity="0"/>
</linearGradient>
<linearGradient id="paint9_linear_3179_954" x1="0" y1="0.5" x2="14" y2="0.5" gradientUnits="userSpaceOnUse">
<stop stop-color="white"/>
<stop offset="1" stop-color="#999999" stop-opacity="0"/>
</linearGradient>
<linearGradient id="paint10_linear_3179_954" x1="0" y1="0.5" x2="31" y2="0.5" gradientUnits="userSpaceOnUse">
<stop stop-color="white"/>
<stop offset="1" stop-color="#999999" stop-opacity="0"/>
</linearGradient>
<linearGradient id="paint11_linear_3179_954" x1="0" y1="0.5" x2="18" y2="0.5" gradientUnits="userSpaceOnUse">
<stop stop-color="white"/>
<stop offset="1" stop-color="#999999" stop-opacity="0"/>
</linearGradient>
<linearGradient id="paint12_linear_3179_954" x1="0" y1="0.5" x2="23" y2="0.5" gradientUnits="userSpaceOnUse">
<stop stop-color="white"/>
<stop offset="1" stop-color="#999999" stop-opacity="0"/>
</linearGradient>
<linearGradient id="paint13_linear_3179_954" x1="198.5" y1="47" x2="198.5" y2="104" gradientUnits="userSpaceOnUse">
<stop stop-color="white"/>
<stop offset="1" stop-color="#999999" stop-opacity="0"/>
</linearGradient>
<linearGradient id="paint14_linear_3179_954" x1="0" y1="0.5" x2="13" y2="0.5" gradientUnits="userSpaceOnUse">
<stop stop-color="white"/>
<stop offset="1" stop-color="#999999" stop-opacity="0"/>
</linearGradient>
<linearGradient id="paint15_linear_3179_954" x1="0" y1="0.5" x2="27" y2="0.5" gradientUnits="userSpaceOnUse">
<stop stop-color="white"/>
<stop offset="1" stop-color="#999999" stop-opacity="0"/>
</linearGradient>
<linearGradient id="paint16_linear_3179_954" x1="0" y1="0.5" x2="104" y2="0.5" gradientUnits="userSpaceOnUse">
<stop stop-color="white"/>
<stop offset="1" stop-color="#999999" stop-opacity="0"/>
</linearGradient>
<linearGradient id="paint17_linear_3179_954" x1="0" y1="0.5" x2="16" y2="0.5" gradientUnits="userSpaceOnUse">
<stop stop-color="white"/>
<stop offset="1" stop-color="#999999" stop-opacity="0"/>
</linearGradient>
<linearGradient id="paint18_linear_3179_954" x1="0" y1="0.5" x2="21" y2="0.5" gradientUnits="userSpaceOnUse">
<stop stop-color="white"/>
<stop offset="1" stop-color="#999999" stop-opacity="0"/>
</linearGradient>
<linearGradient id="paint19_linear_3179_954" x1="186.5" y1="61" x2="186.5" y2="104" gradientUnits="userSpaceOnUse">
<stop stop-color="white"/>
<stop offset="1" stop-color="#999999" stop-opacity="0"/>
</linearGradient>
</defs>
</svg>
