<svg width="392" height="166" viewBox="0 0 392 166" fill="none" xmlns="http://www.w3.org/2000/svg">
<path fill-rule="evenodd" clip-rule="evenodd" d="M378.304 0.667C378.671 1.033 379.271 1.033 379.638 0.667C380.004 0.3 379.704 0 378.971 0C378.238 0 377.938 0.3 378.304 0.667ZM74.4708 3.022C63.6588 4.73 56.3128 8.72 48.2728 17.254C45.4138 20.288 42.7538 22.485 42.3628 22.135C41.9708 21.786 41.9448 22.016 42.3058 22.647C42.6668 23.278 41.5128 26.878 39.7428 30.647C36.9148 36.667 36.4758 38.748 36.1328 47.768C35.6908 59.396 36.7108 64.75 41.0528 73.589C54.7328 101.444 94.0238 107.034 115.419 84.17C124.255 74.728 128.119 64.688 128.16 51.066C128.19 41.089 127.015 35.884 122.778 27.217C117.851 17.141 104.533 6.269 93.9598 3.694C89.3208 2.563 79.5128 2.225 74.4708 3.022ZM0.682808 3.622C-0.262192 4.566 -0.209194 95.185 0.735806 96.598C1.83381 98.238 30.1678 97.909 30.7208 96.25C31.1168 95.063 23.0788 94.419 14.7308 94.968L11.9908 95.149L11.7308 49.324L11.4708 3.5L6.43281 3.205C3.66081 3.043 1.07381 3.23 0.682808 3.622ZM149.597 3.707C148.627 4.677 148.906 79.014 149.895 83.276C151.274 89.212 157.093 95.548 162.955 97.495C172.912 100.802 183.788 95.695 187.187 86.117C188.975 81.08 189.056 4.863 187.274 4.268C186.362 3.964 186.005 13.33 185.774 43.686L185.471 83.504L182.505 88.19C180.874 90.767 178.49 93.354 177.208 93.938C171.92 96.347 165.911 94.589 162.975 89.775C161.065 86.642 160.978 84.714 160.975 45.25C160.973 22.563 160.633 3.979 160.221 3.953C159.809 3.927 157.39 3.72 154.847 3.493C152.304 3.267 149.941 3.363 149.597 3.707ZM206.369 4.404C206.073 5.177 207.639 13.839 209.851 23.654C212.062 33.469 214.087 42.625 214.352 44C214.616 45.375 215.956 51.45 217.33 57.5C218.703 63.55 221.061 74.8 222.569 82.5C224.078 90.2 225.735 96.782 226.252 97.127C226.769 97.473 227.988 97.547 228.961 97.292C231.061 96.743 231.593 94.431 238.466 56C239.793 48.575 242.472 34.625 244.418 25C246.364 15.375 247.96 6.712 247.964 5.75C247.977 2.563 245.084 3.847 244.583 7.25C242.812 19.268 240.533 32.453 239.267 38C238.452 41.575 237.606 45.85 237.389 47.5C236.8 51.967 233.056 71.249 232.71 71.594C232.323 71.981 218.628 8.988 218.668 7.004C218.725 4.164 216.735 3 211.817 3C208.525 3 206.731 3.462 206.369 4.404ZM269.638 3.667C269.271 4.033 268.971 25.183 268.971 50.667C268.971 87.008 269.241 97.024 270.221 97.11C273.83 97.429 280.109 97.196 280.579 96.726C280.875 96.43 281.069 86.245 281.01 74.094L280.902 52L284.187 52.015C285.993 52.024 288.061 52.405 288.783 52.863C289.505 53.32 292.586 63.326 295.629 75.097C298.673 86.869 301.319 96.662 301.51 96.86C301.838 97.2 309.03 97.385 311.721 97.122C313.589 96.94 313.397 95.845 307.914 75.377C303.915 60.447 302.294 55.898 300.164 53.618C298.02 51.324 297.777 50.634 298.971 50.231C299.796 49.953 302.29 47.852 304.514 45.562C309.507 40.418 311.582 33.12 310.633 24.038C309.439 12.618 303.836 5.871 293.996 4.005C288.059 2.879 270.667 2.637 269.638 3.667ZM335.373 4.395C335.14 5.003 335.067 26.2 335.21 51.5L335.471 97.5L349.971 97.579C364.744 97.66 366.971 97.444 366.971 95.929C366.971 95.458 362.584 94.944 357.221 94.786L347.471 94.5L347.201 72.75L346.932 51H355.451C362.358 51 363.971 50.716 363.971 49.5C363.971 48.284 362.36 48 355.471 48H346.971V27V6H357.054C364.678 6 367.035 5.695 366.719 4.75C366.159 3.079 336.009 2.738 335.373 4.395ZM375.424 4.076C375.034 4.707 375.177 5.511 375.742 5.862C376.307 6.213 376.927 7.625 377.12 9C377.553 12.087 380.471 12.384 380.471 9.34C380.471 8.153 380.851 6.803 381.316 6.34C381.781 5.878 382.065 6.175 381.948 7C381.341 11.259 381.857 11.751 386.721 11.543L391.471 11.34L391.233 7.515C390.932 2.688 390.533 2.32 388.357 4.862C386.699 6.798 386.53 6.815 385.369 5.158C383.937 3.114 376.517 2.307 375.424 4.076ZM94.1058 7.735C99.1248 9.956 107.971 17.989 107.971 20.327C107.971 21.156 108.416 21.983 108.96 22.167C110.66 22.74 114.054 33.953 114.932 41.897C118.292 72.308 104.366 95.227 82.4018 95.433C76.3778 95.49 74.4578 95.044 69.4018 92.415C66.1398 90.719 63.5778 88.822 63.7088 88.201C63.8398 87.58 63.3378 87.306 62.5928 87.592C60.6628 88.332 54.1488 78.116 51.4458 70.109C44.1408 48.47 50.5208 20.427 65.0718 10.213C72.7198 4.844 85.1678 3.782 94.1058 7.735ZM293.314 7.11C294.654 7.721 296.317 9.408 297.009 10.86C298.809 14.635 299.494 34.862 298.021 40.725C296.221 47.886 294.78 49 287.316 49H280.971V27.5V6H285.924C288.648 6 291.973 6.5 293.314 7.11ZM44.9708 17.5C44.9708 17.775 45.1958 18 45.4708 18C45.7458 18 45.9708 17.775 45.9708 17.5C45.9708 17.225 45.7458 17 45.4708 17C45.1958 17 44.9708 17.225 44.9708 17.5ZM58.9708 18.5C58.9708 18.775 59.1958 19 59.4708 19C59.7458 19 59.9708 18.775 59.9708 18.5C59.9708 18.225 59.7458 18 59.4708 18C59.1958 18 58.9708 18.225 58.9708 18.5ZM104.971 18.5C104.971 18.775 105.196 19 105.471 19C105.746 19 105.971 18.775 105.971 18.5C105.971 18.225 105.746 18 105.471 18C105.196 18 104.971 18.225 104.971 18.5ZM242.971 41.5C242.971 41.775 243.196 42 243.471 42C243.746 42 243.971 41.775 243.971 41.5C243.971 41.225 243.746 41 243.471 41C243.196 41 242.971 41.225 242.971 41.5ZM129.971 64.5C129.971 64.775 130.196 65 130.471 65C130.746 65 130.971 64.775 130.971 64.5C130.971 64.225 130.746 64 130.471 64C130.196 64 129.971 64.225 129.971 64.5ZM219.971 82.5C219.971 82.775 220.196 83 220.471 83C220.746 83 220.971 82.775 220.971 82.5C220.971 82.225 220.746 82 220.471 82C220.196 82 219.971 82.225 219.971 82.5ZM114.971 86.5C114.971 86.775 115.196 87 115.471 87C115.746 87 115.971 86.775 115.971 86.5C115.971 86.225 115.746 86 115.471 86C115.196 86 114.971 86.225 114.971 86.5ZM0.970806 116.94V122H4.41181C6.30481 122 8.10181 121.597 8.40581 121.105C9.06981 120.03 6.17281 118.757 4.88081 119.556C4.37981 119.865 3.97081 119.673 3.97081 119.129C3.97081 118.584 4.98381 117.94 6.22081 117.697C8.45181 117.258 8.44981 117.247 5.97081 116.433L3.47081 115.613L5.7798 115.056C9.4358 114.175 8.82781 112.53 4.72081 112.19L0.970806 111.879V116.94ZM10.9128 113.57C9.69881 115.032 9.88981 115.524 12.4718 117.583C15.0028 119.601 15.1038 119.848 13.1928 119.348C11.5738 118.924 10.9708 119.205 10.9708 120.383C10.9708 122.575 16.5278 122.598 17.3668 120.41C18.1358 118.407 17.3518 117.121 14.6188 115.902C12.5238 114.967 12.5278 114.955 14.7788 115.393C16.5268 115.734 17.0098 115.437 16.7688 114.172C16.3358 111.9 12.6158 111.518 10.9128 113.57ZM19.6378 112.667C18.4868 113.817 18.9088 115 20.4708 115C21.5188 115 21.9708 116.056 21.9708 118.5C21.9708 120.425 22.4208 122 22.9708 122C23.5208 122 23.9708 120.425 23.9708 118.5C23.9708 116.056 24.4228 115 25.4708 115C26.2958 115 26.9708 114.325 26.9708 113.5C26.9708 112.467 25.9338 112 23.6378 112C21.8038 112 20.0038 112.3 19.6378 112.667ZM330.665 112.639C329.586 113.718 330.973 115 333.217 115C335.227 115 335.188 115.164 332.504 117.966L329.662 120.932L332.308 121.938C335.285 123.07 338.271 122.335 337.638 120.627C337.409 120.007 336.701 119.617 336.067 119.76C335.382 119.914 335.582 118.996 336.56 117.505C337.888 115.478 337.967 114.7 336.967 113.495C335.714 111.985 331.845 111.46 330.665 112.639ZM341.171 113.2C339.845 114.526 339.588 118.895 340.736 120.573C342.381 122.974 344.905 122.899 346.878 120.391C350.555 115.717 345.289 109.082 341.171 113.2ZM350.638 112.667C349.39 113.914 349.966 115.126 351.721 114.948C355.188 114.595 355.301 115.047 352.481 117.99C349.329 121.279 349.349 121.451 352.979 122.318C355.901 123.016 358.539 121.728 357.53 120.095C357.147 119.475 356.414 119.226 355.902 119.543C354.449 120.441 354.808 119.306 356.519 117.595C357.716 116.397 357.822 115.589 356.984 114.024C355.946 112.086 352.052 111.253 350.638 112.667ZM360.215 112.664C358.376 113.406 359.743 115 362.217 115C364.237 115 364.203 115.148 361.557 117.911C358.883 120.701 358.848 120.864 360.708 121.859C362.799 122.978 366.971 122.328 366.971 120.883C366.971 120.398 366.317 120 365.518 120C364.301 120 364.342 119.507 365.768 116.981C367.268 114.321 367.293 113.847 365.971 112.996C364.368 111.965 362.253 111.843 360.215 112.664ZM345.415 115.91C346.214 117.202 344.941 120.099 343.866 119.435C342.675 118.699 342.714 115 343.912 115C344.43 115 345.106 115.409 345.415 115.91ZM35.6648 116.639C35.3128 116.991 35.2648 117.666 35.5568 118.139C35.8498 118.613 98.2738 119 174.53 119C296.922 119 312.971 118.826 312.971 117.5C312.971 116.174 296.934 116 174.638 116C98.5538 116 36.0168 116.288 35.6648 116.639ZM367.971 119.5C367.971 119.775 368.196 120 368.471 120C368.746 120 368.971 119.775 368.971 119.5C368.971 119.225 368.746 119 368.471 119C368.196 119 367.971 119.225 367.971 119.5ZM175.009 125.036C172.006 126.116 169.434 127 169.294 127C169.154 127 167.674 128.335 166.005 129.966C162.275 133.613 162.093 137.213 165.471 140.591C168.097 143.217 168.685 145 166.926 145C164.969 145 160.971 149.901 160.971 152.3C160.971 155.112 163.415 157.581 167.112 158.503C169.899 159.198 180.971 154.744 180.971 152.927C180.971 151.56 178.22 151.8 175.686 153.388C171.927 155.743 166.44 156.27 164.908 154.424C162.67 151.727 165.581 147.962 171.41 146.017C174.126 145.11 176.49 143.942 176.664 143.421C176.838 142.899 174.756 141.683 172.037 140.717C166.409 138.718 164.96 136.191 167.351 132.543C169.643 129.045 174.641 126.941 182.197 126.292C189.837 125.635 191.514 126.997 188.581 131.473C186.795 134.198 186.507 136 187.856 136C189.541 136 192.121 130.826 192.5 126.687C192.724 124.231 192.541 123.077 192.053 123.868C191.419 124.893 190.743 124.949 189.164 124.103C186.141 122.486 181.196 122.812 175.009 125.036ZM170.971 124.5C170.971 124.775 171.196 125 171.471 125C171.746 125 171.971 124.775 171.971 124.5C171.971 124.225 171.746 124 171.471 124C171.196 124 170.971 124.225 170.971 124.5ZM114.634 129.75C110.647 136.079 104.971 146.741 104.971 147.901C104.971 149.21 110.393 149.367 112.787 148.128C113.713 147.649 116.871 147.036 119.805 146.767C124.538 146.333 125.234 146.515 125.991 148.389C126.46 149.55 126.873 149.99 126.908 149.367C127.011 147.514 130.971 146.924 130.971 148.76C130.971 149.625 130.698 150.06 130.364 149.727C130.031 149.393 129.243 149.57 128.614 150.119C127.986 150.669 126.021 151.978 124.248 153.028C118.448 156.465 118.979 163 125.059 163C128.484 163 134.193 158.294 135.969 154.005C136.654 152.352 137.636 151 138.151 151C138.667 151 138.77 150.484 138.381 149.854C137.878 149.041 138.515 148.905 140.572 149.385C142.696 149.88 143.07 149.789 141.971 149.046C140.776 148.237 140.752 148.028 141.853 148.015C142.613 148.007 144.783 147.043 146.676 145.873C151.943 142.618 149.179 141.466 143.592 144.588C140.993 146.041 138.76 147.065 138.629 146.865C138.498 146.664 137.959 145.187 137.431 143.582C136.069 139.44 134.401 139.335 130.778 143.161C129.039 144.998 127.902 145.727 128.25 144.782C129.024 142.684 127.219 141.352 125.684 142.887C123.752 144.819 116.204 144.233 113.948 141.977C111.683 139.712 111.907 138.958 117.119 131.32C120.391 126.523 120.526 126 118.484 126C117.665 126 115.933 127.688 114.634 129.75ZM186.971 130.5C186.971 130.775 187.196 131 187.471 131C187.746 131 187.971 130.775 187.971 130.5C187.971 130.225 187.746 130 187.471 130C187.196 130 186.971 130.225 186.971 130.5ZM168.971 132.5C168.971 132.775 169.196 133 169.471 133C169.746 133 169.971 132.775 169.971 132.5C169.971 132.225 169.746 132 169.471 132C169.196 132 168.971 132.225 168.971 132.5ZM106.971 138.5C106.971 138.775 107.196 139 107.471 139C107.746 139 107.971 138.775 107.971 138.5C107.971 138.225 107.746 138 107.471 138C107.196 138 106.971 138.225 106.971 138.5ZM114.971 138.5C114.971 138.775 115.196 139 115.471 139C115.746 139 115.971 138.775 115.971 138.5C115.971 138.225 115.746 138 115.471 138C115.196 138 114.971 138.225 114.971 138.5ZM181.721 139.067C179.288 140.503 179.533 142.425 182.568 145.698C184.717 148.016 185.997 148.501 189.978 148.509C192.625 148.513 194.58 148.176 194.322 147.759C193.611 146.609 195.422 146.851 196.64 148.069C197.377 148.806 199.36 148.838 203.02 148.173C206.714 147.501 208.866 147.542 210.089 148.306C211.371 149.106 212.474 149.098 214.159 148.277C217.438 146.678 227.325 145.618 226.499 146.954C225.389 148.75 228.577 148.098 231.273 145.977C233.651 144.107 233.917 144.082 234.793 145.647C235.795 147.437 238.352 147.667 247.764 146.811C250.675 146.547 253.289 146.706 253.573 147.165C254.551 148.747 261.478 147.988 264.855 145.93C267.446 144.35 267.963 143.592 267.063 142.692C266.195 141.824 265.702 141.812 265.179 142.647C264.216 144.184 257.5 145.945 256.042 145.044C255.395 144.644 255.002 143.683 255.168 142.908C255.562 141.075 249.206 141.475 245.262 143.532C241.324 145.586 238.231 145.354 236.921 142.906C236.101 141.374 235.219 140.983 233.635 141.451C230.558 142.361 228.14 142.836 222.721 143.595C218.4 144.2 217.971 144.077 217.971 142.237C217.971 138.471 214.65 138.388 210.471 142.05C208.275 143.973 199.893 147.062 198.759 146.366C198.367 146.125 198.553 144.818 199.171 143.46C200.5 140.542 199.287 138.685 197.794 141.352C196.643 143.409 191.142 146 187.925 146C186.097 146 185.858 145.502 186.143 142.275C186.498 138.238 184.986 137.14 181.721 139.067ZM196.971 138.5C196.971 138.775 197.196 139 197.471 139C197.746 139 197.971 138.775 197.971 138.5C197.971 138.225 197.746 138 197.471 138C197.196 138 196.971 138.225 196.971 138.5ZM125.971 140.5C125.971 140.775 126.196 141 126.471 141C126.746 141 126.971 140.775 126.971 140.5C126.971 140.225 126.746 140 126.471 140C126.196 140 125.971 140.225 125.971 140.5ZM194.971 141.5C194.971 141.775 195.196 142 195.471 142C195.746 142 195.971 141.775 195.971 141.5C195.971 141.225 195.746 141 195.471 141C195.196 141 194.971 141.225 194.971 141.5ZM215.971 143C215.971 143.55 215.521 144 214.971 144C214.421 144 213.971 143.55 213.971 143C213.971 142.45 214.421 142 214.971 142C215.521 142 215.971 142.45 215.971 143ZM169.971 143.5C169.971 143.775 169.746 144 169.471 144C169.196 144 168.971 143.775 168.971 143.5C168.971 143.225 169.196 143 169.471 143C169.746 143 169.971 143.225 169.971 143.5ZM134.971 145.941C134.971 147.009 134.471 148.191 133.859 148.569C132.274 149.549 130.863 146.836 132.151 145.284C133.701 143.416 134.971 143.712 134.971 145.941ZM123.971 147.5C123.971 147.775 124.196 148 124.471 148C124.746 148 124.971 147.775 124.971 147.5C124.971 147.225 124.746 147 124.471 147C124.196 147 123.971 147.225 123.971 147.5ZM146.376 149.155C145.933 149.87 146.101 150.038 146.816 149.595C147.451 149.203 147.971 148.684 147.971 148.441C147.971 147.607 147.088 148.002 146.376 149.155ZM180.971 148.5C180.971 148.775 181.196 149 181.471 149C181.746 149 181.971 148.775 181.971 148.5C181.971 148.225 181.746 148 181.471 148C181.196 148 180.971 148.225 180.971 148.5ZM215.971 148.5C215.971 148.775 216.196 149 216.471 149C216.746 149 216.971 148.775 216.971 148.5C216.971 148.225 216.746 148 216.471 148C216.196 148 215.971 148.225 215.971 148.5ZM236.304 148.667C236.671 149.033 237.271 149.033 237.638 148.667C238.004 148.3 237.704 148 236.971 148C236.238 148 235.938 148.3 236.304 148.667ZM248.971 148.5C248.971 148.775 249.196 149 249.471 149C249.746 149 249.971 148.775 249.971 148.5C249.971 148.225 249.746 148 249.471 148C249.196 148 248.971 148.225 248.971 148.5ZM267.971 148.5C267.971 148.775 268.196 149 268.471 149C268.746 149 268.971 148.775 268.971 148.5C268.971 148.225 268.746 148 268.471 148C268.196 148 267.971 148.225 267.971 148.5ZM169.971 149.5C169.971 149.775 170.196 150 170.471 150C170.746 150 170.971 149.775 170.971 149.5C170.971 149.225 170.746 149 170.471 149C170.196 149 169.971 149.225 169.971 149.5ZM229.971 149.5C229.971 149.775 230.196 150 230.471 150C230.746 150 230.971 149.775 230.971 149.5C230.971 149.225 230.746 149 230.471 149C230.196 149 229.971 149.225 229.971 149.5ZM231.971 149.5C231.971 149.775 232.196 150 232.471 150C232.746 150 232.971 149.775 232.971 149.5C232.971 149.225 232.746 149 232.471 149C232.196 149 231.971 149.225 231.971 149.5ZM250.971 149.5C250.971 149.775 251.196 150 251.471 150C251.746 150 251.971 149.775 251.971 149.5C251.971 149.225 251.746 149 251.471 149C251.196 149 250.971 149.225 250.971 149.5ZM262.971 149.5C262.971 149.775 263.196 150 263.471 150C263.746 150 263.971 149.775 263.971 149.5C263.971 149.225 263.746 149 263.471 149C263.196 149 262.971 149.225 262.971 149.5ZM101.971 150.5C101.971 150.775 102.196 151 102.471 151C102.746 151 102.971 150.775 102.971 150.5C102.971 150.225 102.746 150 102.471 150C102.196 150 101.971 150.225 101.971 150.5ZM108.971 150.5C108.971 150.775 109.196 151 109.471 151C109.746 151 109.971 150.775 109.971 150.5C109.971 150.225 109.746 150 109.471 150C109.196 150 108.971 150.225 108.971 150.5ZM114.971 150.5C114.971 150.775 115.196 151 115.471 151C115.746 151 115.971 150.775 115.971 150.5C115.971 150.225 115.746 150 115.471 150C115.196 150 114.971 150.225 114.971 150.5ZM182.971 150.5C182.971 150.775 183.196 151 183.471 151C183.746 151 183.971 150.775 183.971 150.5C183.971 150.225 183.746 150 183.471 150C183.196 150 182.971 150.225 182.971 150.5ZM209.971 150.5C209.971 150.775 210.196 151 210.471 151C210.746 151 210.971 150.775 210.971 150.5C210.971 150.225 210.746 150 210.471 150C210.196 150 209.971 150.225 209.971 150.5ZM235.304 150.667C235.671 151.033 236.271 151.033 236.638 150.667C237.004 150.3 236.704 150 235.971 150C235.238 150 234.938 150.3 235.304 150.667ZM132.403 154.846C130.052 158.826 122.971 161.945 122.971 159C122.971 156.706 132.458 150.16 133.818 151.515C134.01 151.706 133.373 153.204 132.403 154.846ZM228.971 151.5C228.971 151.775 229.196 152 229.471 152C229.746 152 229.971 151.775 229.971 151.5C229.971 151.225 229.746 151 229.471 151C229.196 151 228.971 151.225 228.971 151.5ZM175.971 158.5C175.971 158.775 176.196 159 176.471 159C176.746 159 176.971 158.775 176.971 158.5C176.971 158.225 176.746 158 176.471 158C176.196 158 175.971 158.225 175.971 158.5ZM119.304 165.667C119.671 166.033 120.271 166.033 120.638 165.667C121.004 165.3 120.704 165 119.971 165C119.238 165 118.938 165.3 119.304 165.667Z" fill="white"/>
</svg>
