<svg width="374" height="240" viewBox="0 0 374 240" fill="none" xmlns="http://www.w3.org/2000/svg">
<line x1="0.5" y1="2.18558e-08" x2="0.49999" y2="240" stroke="url(#paint0_linear_3179_953)"/>
<line x1="198.5" y1="163" x2="198.5" y2="240" stroke="url(#paint1_linear_3179_953)"/>
<line x1="99.5" y1="103" x2="99.5" y2="240" stroke="url(#paint2_linear_3179_953)"/>
<line x1="298.5" y1="196" x2="298.5" y2="240" stroke="url(#paint3_linear_3179_953)"/>
<line x1="49.5" y1="57" x2="49.5" y2="240" stroke="url(#paint4_linear_3179_953)"/>
<line x1="247.5" y1="181" x2="247.5" y2="240" stroke="url(#paint5_linear_3179_953)"/>
<line x1="148.5" y1="136" x2="148.5" y2="240" stroke="url(#paint6_linear_3179_953)"/>
<line x1="348.5" y1="207" x2="348.5" y2="240" stroke="url(#paint7_linear_3179_953)"/>
<line x1="12.5" y1="13" x2="12.5" y2="240" stroke="url(#paint8_linear_3179_953)"/>
<line x1="210.5" y1="167" x2="210.5" y2="240" stroke="url(#paint9_linear_3179_953)"/>
<line x1="111.5" y1="109" x2="111.5" y2="240" stroke="url(#paint10_linear_3179_953)"/>
<line x1="310.5" y1="198" x2="310.5" y2="240" stroke="url(#paint11_linear_3179_953)"/>
<line x1="62.5" y1="67" x2="62.5" y2="240" stroke="url(#paint12_linear_3179_953)"/>
<line x1="260.5" y1="184" x2="260.5" y2="240" stroke="url(#paint13_linear_3179_953)"/>
<line x1="160.5" y1="143" x2="160.5" y2="240" stroke="url(#paint14_linear_3179_953)"/>
<line x1="360.5" y1="208" x2="360.5" y2="240" stroke="url(#paint15_linear_3179_953)"/>
<line x1="25.5" y1="29" x2="25.5" y2="240" stroke="url(#paint16_linear_3179_953)"/>
<line x1="223.5" y1="172" x2="223.5" y2="240" stroke="url(#paint17_linear_3179_953)"/>
<line x1="123.5" y1="120" x2="123.5" y2="240" stroke="url(#paint18_linear_3179_953)"/>
<line x1="323.5" y1="201" x2="323.5" y2="240" stroke="url(#paint19_linear_3179_953)"/>
<line x1="74.5" y1="79" x2="74.5" y2="240" stroke="url(#paint20_linear_3179_953)"/>
<line x1="273.5" y1="188" x2="273.5" y2="240" stroke="url(#paint21_linear_3179_953)"/>
<line x1="173.5" y1="148" x2="173.5" y2="240" stroke="url(#paint22_linear_3179_953)"/>
<line x1="373.5" y1="210" x2="373.5" y2="240" stroke="url(#paint23_linear_3179_953)"/>
<line x1="37.5" y1="46" x2="37.5" y2="240" stroke="url(#paint24_linear_3179_953)"/>
<line x1="235.5" y1="179" x2="235.5" y2="240" stroke="url(#paint25_linear_3179_953)"/>
<line x1="136.5" y1="131" x2="136.5" y2="240" stroke="url(#paint26_linear_3179_953)"/>
<line x1="336.5" y1="205" x2="336.5" y2="240" stroke="url(#paint27_linear_3179_953)"/>
<line x1="86.5" y1="94" x2="86.5" y2="240" stroke="url(#paint28_linear_3179_953)"/>
<line x1="285.5" y1="193" x2="285.5" y2="240" stroke="url(#paint29_linear_3179_953)"/>
<line x1="185.5" y1="157" x2="185.5" y2="240" stroke="url(#paint30_linear_3179_953)"/>
<defs>
<linearGradient id="paint0_linear_3179_953" x1="-0.5" y1="-2.18558e-08" x2="-0.50001" y2="240" gradientUnits="userSpaceOnUse">
<stop stop-color="white"/>
<stop offset="1" stop-color="#999999" stop-opacity="0"/>
</linearGradient>
<linearGradient id="paint1_linear_3179_953" x1="197.5" y1="163" x2="197.5" y2="240" gradientUnits="userSpaceOnUse">
<stop stop-color="white"/>
<stop offset="1" stop-color="#999999" stop-opacity="0"/>
</linearGradient>
<linearGradient id="paint2_linear_3179_953" x1="98.5" y1="103" x2="98.5" y2="240" gradientUnits="userSpaceOnUse">
<stop stop-color="white"/>
<stop offset="1" stop-color="#999999" stop-opacity="0"/>
</linearGradient>
<linearGradient id="paint3_linear_3179_953" x1="297.5" y1="196" x2="297.5" y2="240" gradientUnits="userSpaceOnUse">
<stop stop-color="white"/>
<stop offset="1" stop-color="#999999" stop-opacity="0"/>
</linearGradient>
<linearGradient id="paint4_linear_3179_953" x1="48.5" y1="57" x2="48.5" y2="240" gradientUnits="userSpaceOnUse">
<stop stop-color="white"/>
<stop offset="1" stop-color="#999999" stop-opacity="0"/>
</linearGradient>
<linearGradient id="paint5_linear_3179_953" x1="246.5" y1="181" x2="246.5" y2="240" gradientUnits="userSpaceOnUse">
<stop stop-color="white"/>
<stop offset="1" stop-color="#999999" stop-opacity="0"/>
</linearGradient>
<linearGradient id="paint6_linear_3179_953" x1="147.5" y1="136" x2="147.5" y2="240" gradientUnits="userSpaceOnUse">
<stop stop-color="white"/>
<stop offset="1" stop-color="#999999" stop-opacity="0"/>
</linearGradient>
<linearGradient id="paint7_linear_3179_953" x1="347.5" y1="207" x2="347.5" y2="240" gradientUnits="userSpaceOnUse">
<stop stop-color="white"/>
<stop offset="1" stop-color="#999999" stop-opacity="0"/>
</linearGradient>
<linearGradient id="paint8_linear_3179_953" x1="11.5" y1="13" x2="11.5" y2="240" gradientUnits="userSpaceOnUse">
<stop stop-color="white"/>
<stop offset="1" stop-color="#999999" stop-opacity="0"/>
</linearGradient>
<linearGradient id="paint9_linear_3179_953" x1="209.5" y1="167" x2="209.5" y2="240" gradientUnits="userSpaceOnUse">
<stop stop-color="white"/>
<stop offset="1" stop-color="#999999" stop-opacity="0"/>
</linearGradient>
<linearGradient id="paint10_linear_3179_953" x1="110.5" y1="109" x2="110.5" y2="240" gradientUnits="userSpaceOnUse">
<stop stop-color="white"/>
<stop offset="1" stop-color="#999999" stop-opacity="0"/>
</linearGradient>
<linearGradient id="paint11_linear_3179_953" x1="309.5" y1="198" x2="309.5" y2="240" gradientUnits="userSpaceOnUse">
<stop stop-color="white"/>
<stop offset="1" stop-color="#999999" stop-opacity="0"/>
</linearGradient>
<linearGradient id="paint12_linear_3179_953" x1="61.5" y1="67" x2="61.5" y2="240" gradientUnits="userSpaceOnUse">
<stop stop-color="white"/>
<stop offset="1" stop-color="#999999" stop-opacity="0"/>
</linearGradient>
<linearGradient id="paint13_linear_3179_953" x1="259.5" y1="184" x2="259.5" y2="240" gradientUnits="userSpaceOnUse">
<stop stop-color="white"/>
<stop offset="1" stop-color="#999999" stop-opacity="0"/>
</linearGradient>
<linearGradient id="paint14_linear_3179_953" x1="159.5" y1="143" x2="159.5" y2="240" gradientUnits="userSpaceOnUse">
<stop stop-color="white"/>
<stop offset="1" stop-color="#999999" stop-opacity="0"/>
</linearGradient>
<linearGradient id="paint15_linear_3179_953" x1="359.5" y1="208" x2="359.5" y2="240" gradientUnits="userSpaceOnUse">
<stop stop-color="white"/>
<stop offset="1" stop-color="#999999" stop-opacity="0"/>
</linearGradient>
<linearGradient id="paint16_linear_3179_953" x1="24.5" y1="29" x2="24.5" y2="240" gradientUnits="userSpaceOnUse">
<stop stop-color="white"/>
<stop offset="1" stop-color="#999999" stop-opacity="0"/>
</linearGradient>
<linearGradient id="paint17_linear_3179_953" x1="222.5" y1="172" x2="222.5" y2="240" gradientUnits="userSpaceOnUse">
<stop stop-color="white"/>
<stop offset="1" stop-color="#999999" stop-opacity="0"/>
</linearGradient>
<linearGradient id="paint18_linear_3179_953" x1="122.5" y1="120" x2="122.5" y2="240" gradientUnits="userSpaceOnUse">
<stop stop-color="white"/>
<stop offset="1" stop-color="#999999" stop-opacity="0"/>
</linearGradient>
<linearGradient id="paint19_linear_3179_953" x1="322.5" y1="201" x2="322.5" y2="240" gradientUnits="userSpaceOnUse">
<stop stop-color="white"/>
<stop offset="1" stop-color="#999999" stop-opacity="0"/>
</linearGradient>
<linearGradient id="paint20_linear_3179_953" x1="73.5" y1="79" x2="73.5" y2="240" gradientUnits="userSpaceOnUse">
<stop stop-color="white"/>
<stop offset="1" stop-color="#999999" stop-opacity="0"/>
</linearGradient>
<linearGradient id="paint21_linear_3179_953" x1="272.5" y1="188" x2="272.5" y2="240" gradientUnits="userSpaceOnUse">
<stop stop-color="white"/>
<stop offset="1" stop-color="#999999" stop-opacity="0"/>
</linearGradient>
<linearGradient id="paint22_linear_3179_953" x1="172.5" y1="148" x2="172.5" y2="240" gradientUnits="userSpaceOnUse">
<stop stop-color="white"/>
<stop offset="1" stop-color="#999999" stop-opacity="0"/>
</linearGradient>
<linearGradient id="paint23_linear_3179_953" x1="372.5" y1="210" x2="372.5" y2="240" gradientUnits="userSpaceOnUse">
<stop stop-color="white"/>
<stop offset="1" stop-color="#999999" stop-opacity="0"/>
</linearGradient>
<linearGradient id="paint24_linear_3179_953" x1="36.5" y1="46" x2="36.5" y2="240" gradientUnits="userSpaceOnUse">
<stop stop-color="white"/>
<stop offset="1" stop-color="#999999" stop-opacity="0"/>
</linearGradient>
<linearGradient id="paint25_linear_3179_953" x1="234.5" y1="179" x2="234.5" y2="240" gradientUnits="userSpaceOnUse">
<stop stop-color="white"/>
<stop offset="1" stop-color="#999999" stop-opacity="0"/>
</linearGradient>
<linearGradient id="paint26_linear_3179_953" x1="135.5" y1="131" x2="135.5" y2="240" gradientUnits="userSpaceOnUse">
<stop stop-color="white"/>
<stop offset="1" stop-color="#999999" stop-opacity="0"/>
</linearGradient>
<linearGradient id="paint27_linear_3179_953" x1="335.5" y1="205" x2="335.5" y2="240" gradientUnits="userSpaceOnUse">
<stop stop-color="white"/>
<stop offset="1" stop-color="#999999" stop-opacity="0"/>
</linearGradient>
<linearGradient id="paint28_linear_3179_953" x1="85.5" y1="94" x2="85.5" y2="240" gradientUnits="userSpaceOnUse">
<stop stop-color="white"/>
<stop offset="1" stop-color="#999999" stop-opacity="0"/>
</linearGradient>
<linearGradient id="paint29_linear_3179_953" x1="284.5" y1="193" x2="284.5" y2="240" gradientUnits="userSpaceOnUse">
<stop stop-color="white"/>
<stop offset="1" stop-color="#999999" stop-opacity="0"/>
</linearGradient>
<linearGradient id="paint30_linear_3179_953" x1="184.5" y1="157" x2="184.5" y2="240" gradientUnits="userSpaceOnUse">
<stop stop-color="white"/>
<stop offset="1" stop-color="#999999" stop-opacity="0"/>
</linearGradient>
</defs>
</svg>
