<svg width="667" height="44" viewBox="0 0 667 44" fill="none" xmlns="http://www.w3.org/2000/svg">
<path fill-rule="evenodd" clip-rule="evenodd" d="M305.133 1.09639C303.373 1.56839 301.678 2.36638 301.366 2.87038C301.055 3.37338 302.424 8.20438 304.407 13.6044C306.391 19.0044 309.4 27.2474 311.094 31.9224C314.885 42.3864 315.287 42.9224 319.334 42.9224C323.434 42.9224 323.843 42.3654 327.79 31.4224C329.575 26.4724 332.567 18.1724 334.439 12.9774C336.311 7.78238 337.473 3.16139 337.021 2.70939C335.856 1.54439 330.561 0.152386 329.146 0.639386C328.492 0.863386 326.093 6.64439 323.813 13.4854C321.533 20.3254 319.518 25.9224 319.334 25.9224C319.15 25.9224 317.138 20.3364 314.863 13.5084C312.587 6.68138 310.188 0.902386 309.53 0.666386C308.872 0.431386 306.894 0.624386 305.133 1.09639ZM441.201 1.84038C436.839 4.50038 434.834 7.73039 434.834 12.0974C434.834 17.9134 436.638 20.5764 443.487 24.8704C446.978 27.0594 449.834 29.2794 449.834 29.8044C449.834 33.7744 445.348 35.4524 442.834 32.4224C441.034 30.2534 439.557 30.5584 436.521 33.7274C433.191 37.2034 433.167 38.2524 436.363 40.7664C444.842 47.4364 458.381 42.1234 459.56 31.6644C460.264 25.4114 458.063 21.8134 450.851 17.4324C447.542 15.4224 444.834 13.1214 444.834 12.3184C444.834 10.2694 447.745 9.38539 449.953 10.7644C452.843 12.5694 454.278 12.1664 456.719 8.86338C459.361 5.29038 458.526 3.52838 453.116 1.26738C448.669 -0.591616 444.891 -0.409618 441.201 1.84038ZM508.201 1.84038C503.675 4.60038 501.834 7.75738 501.834 12.7624C501.834 16.5594 502.355 17.6514 505.667 20.7904C507.775 22.7874 511.038 25.3314 512.917 26.4434C517.289 29.0284 517.772 33.2554 513.748 33.7234C512.31 33.8904 510.592 33.3354 509.876 32.4734C508.096 30.3284 506.551 30.5304 504.008 33.2364C499.873 37.6384 502.096 41.7234 509.515 43.3524C520.068 45.6704 529.197 36.5084 526.404 26.4044C525.492 23.1054 524.19 21.6754 518.818 18.0664C512.351 13.7214 510.651 10.7744 514.215 10.0874C515.25 9.88838 517.211 10.3214 518.572 11.0504C520.839 12.2634 521.254 12.1354 523.488 9.53838C526.419 6.13138 526.193 5.10838 521.859 2.17238C517.77 -0.597617 512.413 -0.728618 508.201 1.84038ZM7.13743 2.12138C5.75343 3.87738 -0.378565 36.2294 0.018435 39.6804C0.299435 42.1184 0.793436 42.4564 4.47244 42.7244L8.61143 43.0264L9.72243 36.6424C10.3344 33.1314 10.8344 29.0844 10.8344 27.6494C10.8344 22.1484 12.6374 24.3224 14.7694 32.3954C15.9924 37.0224 17.6024 41.3144 18.3484 41.9334C19.0934 42.5524 21.1954 42.9154 23.0194 42.7404C26.6154 42.3954 26.2364 43.1214 30.4834 28.4224C32.3724 21.8814 32.4324 21.9764 34.1804 34.2884L35.3344 42.4224L38.8344 42.6834C45.4404 43.1764 45.5284 42.7714 42.4044 26.2484C37.5544 0.591379 37.8504 1.47138 33.9574 1.09938C32.0994 0.922385 30.0744 1.27938 29.4574 1.89438C28.8394 2.50938 26.9254 8.05438 25.2024 14.2174L22.0704 25.4224L20.3614 19.4224C19.4214 16.1224 17.8844 10.7224 16.9444 7.42238C15.3024 1.65238 15.1004 1.41038 11.6994 1.12138C9.65644 0.94838 7.73043 1.37038 7.13743 2.12138ZM100.165 1.67038C99.0614 2.39738 85.8344 38.3644 85.8344 40.6404C85.8344 42.0264 88.2434 42.9224 91.9674 42.9224C94.4234 42.9224 95.1924 42.3094 96.4194 39.3734C97.8984 35.8344 97.9174 35.8254 103.618 36.1234C109.11 36.4104 109.372 36.5494 110.291 39.6724C111.139 42.5524 111.651 42.9204 114.791 42.9074C121.708 42.8774 121.796 42.3344 117.078 28.7094C107.778 1.84638 107.594 1.45038 104.304 1.16138C102.67 1.01838 100.808 1.24738 100.165 1.67038ZM164.28 2.20138C164.01 2.90538 163.912 12.2434 164.062 22.9514L164.334 42.4224H168.334H172.334L172.834 35.9534L173.334 29.4844L177.698 34.9534C180.098 37.9614 182.284 40.9854 182.555 41.6724C183.636 44.4124 191.834 41.6954 191.834 38.5974C191.834 37.9314 190.034 35.2074 187.834 32.5454C183.311 27.0714 183.197 26.6954 185.489 24.7944C188.25 22.5054 190.027 17.0224 189.335 12.9284C188.633 8.77438 184.088 3.70638 179.519 1.98338C175.475 0.45938 164.891 0.610382 164.28 2.20138ZM231.252 3.39438C230.903 4.78438 230.9 7.04738 231.245 8.42238C231.796 10.6214 232.409 10.9224 236.328 10.9224H240.783L241.059 26.6724L241.334 42.4224H245.834H250.334L250.609 26.7284L250.884 11.0354L255.109 10.7284L259.334 10.4224V5.92238V1.42238L245.61 1.14438L231.886 0.866383L231.252 3.39438ZM380.899 2.80038C380.263 3.98938 379.834 11.7834 379.834 22.1654C379.834 41.8774 380.248 43.2864 385.878 42.7514L389.334 42.4224V21.9224V1.42238L385.649 1.11638C382.8 0.878383 381.723 1.26038 380.899 2.80038ZM571.28 2.20138C571.01 2.90538 570.912 12.2434 571.062 22.9514L571.334 42.4224H582.334H593.334V37.9224V33.4224L587.084 33.1244L580.834 32.8274V29.4274C580.834 26.0304 580.839 26.0264 586.084 25.7244L591.334 25.4224V20.9224V16.4224L586.084 16.1204C581.263 15.8424 580.834 15.6184 580.834 13.3704C580.834 11.0484 581.14 10.9224 586.755 10.9224C592.494 10.9224 592.695 10.8324 593.321 7.98138C593.676 6.36338 593.471 4.11338 592.865 2.98138C591.866 1.11338 590.835 0.922383 581.767 0.922383C574.57 0.922383 571.634 1.28038 571.28 2.20138ZM638.329 2.07438C638.032 2.84838 637.912 12.2434 638.062 22.9514L638.334 42.4224H642.834H647.334L647.834 35.9784L648.334 29.5344L653.239 36.2284C656.277 40.3744 658.859 42.9224 660.024 42.9224C662.203 42.9224 666.834 40.1144 666.834 38.7934C666.834 38.2984 664.762 35.3504 662.23 32.2414C657.723 26.7084 657.668 26.5544 659.613 25.0054C666.108 19.8314 664.875 8.27139 657.297 3.30639C653.736 0.972385 639.116 0.0233831 638.329 2.07438ZM178.263 12.4934C180.639 14.8704 180.028 16.7314 176.215 18.7374C173.559 20.1354 172.834 19.4244 172.834 15.4224C172.834 10.6634 175.172 9.40238 178.263 12.4934ZM652.634 12.1224C654.649 14.1374 654.033 17.5104 651.434 18.6954C648.472 20.0444 647.834 19.4644 647.834 15.4224C647.834 10.9224 649.967 9.45538 652.634 12.1224ZM105.372 23.1724C105.982 25.6434 105.786 25.9224 103.442 25.9224C100.421 25.9224 100.509 26.1544 101.958 21.9954C103.181 18.4864 104.311 18.8764 105.372 23.1724Z" fill="white"/>
</svg>
