<svg width="662" height="53" viewBox="0 0 662 53" fill="none" xmlns="http://www.w3.org/2000/svg">
<path fill-rule="evenodd" clip-rule="evenodd" d="M178.5 1.28172C164.202 6.01672 157.64 13.7747 157.64 25.9427C157.64 33.3977 159.816 38.5177 165.162 43.6417C177.622 55.5827 207.283 55.5827 219.872 43.6417C224.777 38.9887 226.952 33.5907 226.978 26.0087C227.016 14.9537 222.413 8.35072 211 3.08572C206.306 0.920719 203.814 0.505718 194 0.253718C186.387 0.0577179 181.148 0.404718 178.5 1.28172ZM613.718 1.03472C595.877 5.23572 587.089 21.9017 594.75 37.0067C600.012 47.3817 610.473 52.3597 627 52.3527C641.424 52.3477 651.821 48.1367 657.442 40.0267C667.455 25.5767 660.266 7.50272 642.298 1.95272C635.308 -0.206277 620.945 -0.667276 613.718 1.03472ZM0 4.94272V8.94272H5.833H11.666L22.976 29.9427L34.286 50.9427L47.893 50.9207L61.5 50.8977L72.5 29.9267L83.5 8.95472L89.25 8.94872L95 8.94272V4.94272V0.942721H78H61V4.88772V8.83272L65.461 9.13772L69.923 9.44272L62.232 23.7387C55.35 36.5297 54.401 37.8457 53.219 36.2387C51.596 34.0317 39 10.3877 39 9.54772C39 9.21472 41.475 8.94272 44.5 8.94272H50V4.94272V0.942721H25H0V4.94272ZM301 4.94272V8.94272H307H313V25.9427V42.9427H307H301V46.9427V50.9427H335.532H370.063L369.782 39.1927L369.5 27.4427L366.105 27.1187C362.424 26.7667 361.04 28.0137 361.015 31.7077C361.007 32.9527 359.538 35.5647 357.75 37.5107C354.158 41.4207 349.705 42.8807 341.25 42.9187L336 42.9427V25.9427V8.94272H341.5H347V4.94272V0.942721H324H301V4.94272ZM435 4.89272V8.84272L440.703 9.14272L446.406 9.44272L457.479 29.9427L468.552 50.4427L482.113 50.7197L495.673 50.9967L506.707 30.2197L517.74 9.44272L523.37 9.14272L529 8.84272V4.89272V0.942721H512H495V4.94272V8.94272H499.5C501.975 8.94272 504 9.19972 504 9.51272C504 10.2927 490.032 36.2457 489.082 37.2327C488.663 37.6667 484.89 31.5917 480.696 23.7327L473.071 9.44272L478.536 9.14272L484 8.84272V4.89272V0.942721H459.5H435V4.89272ZM196.478 9.11472C202.864 12.0247 205.878 24.7717 202.55 34.7927C199.609 43.6477 192.353 46.6347 186.253 41.5017C178.494 34.9727 179.54 13.9767 187.849 9.46272C191.121 7.68572 193.16 7.60272 196.478 9.11472ZM633.322 10.7047C636.482 13.5157 638 18.4107 638 25.7887C638 37.0577 633.617 43.9427 626.442 43.9427C613.679 43.9427 610.953 15.6127 623.096 9.16672C625.995 7.62872 630.652 8.32872 633.322 10.7047Z" fill="white"/>
</svg>
