<svg width="413" height="98" viewBox="0 0 413 98" fill="none" xmlns="http://www.w3.org/2000/svg">
<path d="M412.5 49C412.5 55.4667 406.96 61.7841 396.528 67.6369C386.136 73.4666 371.067 78.7328 352.402 83.1617C315.081 92.0176 263.496 97.5 206.5 97.5C149.504 97.5 97.9192 92.0176 60.5979 83.1617C41.9333 78.7328 26.8637 73.4666 16.4724 67.6369C6.03984 61.7841 0.5 55.4667 0.5 49C0.5 42.5333 6.03984 36.2159 16.4724 30.3631C26.8637 24.5334 41.9333 19.2672 60.5979 14.8383C97.9192 5.98235 149.504 0.5 206.5 0.5C263.496 0.5 315.081 5.98235 352.402 14.8383C371.067 19.2672 386.136 24.5334 396.528 30.3631C406.96 36.2159 412.5 42.5333 412.5 49Z" stroke="url(#paint0_linear_2881_138)"/>
<defs>
<linearGradient id="paint0_linear_2881_138" x1="0" y1="49" x2="413" y2="49" gradientUnits="userSpaceOnUse">
<stop stop-color="white" stop-opacity="0"/>
<stop offset="0.535" stop-color="#0047FF"/>
<stop offset="1" stop-color="#999999" stop-opacity="0"/>
</linearGradient>
</defs>
</svg>
