<svg width="178" height="38" viewBox="0 0 178 38" fill="none" xmlns="http://www.w3.org/2000/svg">
<path d="M14.4643 0H178L163.536 38H0L14.4643 0Z" fill="white"/>
<path d="M95.8204 12.8682H93.9503V25.3589H95.8204V12.8682Z" fill="black"/>
<path d="M124.77 12.8H122.9V25.2908H124.77V12.8Z" fill="black"/>
<path d="M117.978 12.8512V14.8279H115.264V25.3249H113.394V14.8279H110.675V12.8512H117.978Z" fill="black"/>
<path d="M54.6386 12.9064H52.7685V25.3972H54.6386V12.9064Z" fill="black"/>
<path d="M89.2298 23.4162V25.393H82.8473V12.9022H84.7174V23.4162H89.2298Z" fill="black"/>
<path d="M63.6213 19.8178L65.7885 25.4014H63.9184L61.081 18.0911H62.4191V18.0824C62.8205 18.0818 63.2052 17.9127 63.4886 17.6124C63.7721 17.312 63.931 16.9049 63.9305 16.4806C63.9299 16.0564 63.77 15.6498 63.4858 15.3502C63.2016 15.0506 62.8165 14.8826 62.4151 14.8831L59.841 14.8865L59.082 12.9314V12.9108H62.4191C64.2843 12.9108 65.7965 14.5092 65.7965 16.4807C65.7965 17.2044 65.5885 17.911 65.2001 18.5069C64.8116 19.1029 64.261 19.56 63.6213 19.8178Z" fill="black"/>
<path d="M107.97 21.5844C107.97 23.5561 106.458 25.3248 104.592 25.3248H102.745L103.51 23.3515L104.589 23.3528C105.425 23.3528 106.1 22.4695 106.1 21.5849C106.1 21.2009 105.969 20.8297 105.732 20.5389C105.495 20.2481 105.167 20.057 104.807 20.0004L105.523 18.1521C106.936 18.5784 107.97 19.9537 107.97 21.5844Z" fill="black"/>
<path d="M105.705 12.8341V12.851L104.947 14.8075L103.863 14.8061C103.665 14.8057 103.468 14.8468 103.284 14.9269C103.101 15.0071 102.934 15.1247 102.794 15.2731C102.653 15.4215 102.542 15.5978 102.466 15.7918C102.39 15.9858 102.351 16.1937 102.352 16.4036C102.352 17.1651 102.849 17.8155 103.718 17.9812L103.004 19.8263C101.471 19.3677 100.482 18.0028 100.482 16.4036C100.482 14.432 101.994 12.8336 103.859 12.8336L105.705 12.8341Z" fill="black"/>
<path d="M48.8269 12.9022L43.9904 25.393H43.6842L38.8478 12.9022H40.7179L43.8372 20.9588L46.9568 12.9022H48.8269Z" fill="black"/>
<path d="M79.2356 25.3888H77.3655L74.2461 17.3322L71.1266 25.3888H69.2565L74.0929 12.898H74.3992L79.2356 25.3888Z" fill="black"/>
<path d="M137.675 22.275L138.985 23.6592C137.89 24.7523 136.44 25.3603 134.934 25.3582C131.671 25.3582 129.026 22.5584 129.026 19.1085C129.026 15.6587 131.671 12.8679 134.934 12.8679C136.492 12.8657 137.987 13.5158 139.092 14.676L137.775 16.0677C137.019 15.2825 136.002 14.8432 134.942 14.8447C132.707 14.8447 130.896 16.7597 130.896 19.1218C130.896 21.484 132.707 23.399 134.942 23.399C135.954 23.4003 136.93 22.9991 137.675 22.275Z" fill="black"/>
</svg>
