<svg width="34" height="34" viewBox="0 0 34 34" fill="none" xmlns="http://www.w3.org/2000/svg">
<circle cx="17" cy="17" r="10" fill="white"/>
<circle opacity="0.2" cx="17" cy="17" r="17" fill="white"/>
<path d="M20.9884 19.2973L20.9707 12.4844L14.1577 12.4667C14.0867 12.4571 14.0145 12.4628 13.946 12.4836C13.8774 12.5043 13.8141 12.5395 13.7603 12.5868C13.7065 12.6341 13.6636 12.6925 13.6343 12.7578C13.605 12.8232 13.5901 12.8941 13.5907 12.9657C13.5912 13.0374 13.6071 13.108 13.6373 13.173C13.6675 13.2379 13.7113 13.2957 13.7657 13.3422C13.8202 13.3887 13.884 13.4231 13.9528 13.4428C14.0217 13.4625 14.094 13.4673 14.1648 13.4566L19.2701 13.4779L12.5066 20.2413C12.4129 20.3351 12.3602 20.4623 12.3602 20.5949C12.3602 20.7275 12.4129 20.8547 12.5066 20.9484C12.6004 21.0422 12.7276 21.0949 12.8602 21.0949C12.9928 21.0949 13.12 21.0422 13.2137 20.9484L19.9772 14.185L19.9984 19.2903C19.9989 19.423 20.0521 19.55 20.1462 19.6435C20.2404 19.737 20.3678 19.7893 20.5005 19.7888C20.6332 19.7883 20.7602 19.7352 20.8537 19.641C20.9472 19.5469 20.9995 19.4194 20.999 19.2867L20.9884 19.2973Z" fill="black"/>
</svg>
