<svg width="55" height="55" viewBox="0 0 55 55" fill="none" xmlns="http://www.w3.org/2000/svg">
<path d="M43.6556 11.2548C41.5543 9.13297 39.0517 7.45057 36.2936 6.30564C33.5356 5.16072 30.5772 4.57617 27.591 4.58606C15.0785 4.58606 4.8806 14.784 4.8806 27.2965C4.8806 31.3069 5.93477 35.2027 7.9056 38.6402L4.69727 50.4194L16.7285 47.2569C20.0514 49.0673 23.7868 50.0298 27.591 50.0298C40.1035 50.0298 50.3014 39.8319 50.3014 27.3194C50.3014 21.2465 47.941 15.5402 43.6556 11.2548ZM27.591 46.1798C24.1993 46.1798 20.8764 45.2631 17.966 43.5444L17.2785 43.1319L10.1285 45.0111L12.0306 38.0444L11.5723 37.334C9.68748 34.3252 8.68688 30.8469 8.68477 27.2965C8.68477 16.8923 17.1639 8.41314 27.5681 8.41314C32.6098 8.41314 37.3535 10.384 40.9056 13.959C42.6647 15.7095 44.0587 17.7919 45.0068 20.0854C45.9549 22.3788 46.4381 24.8377 46.4285 27.3194C46.4743 37.7236 37.9952 46.1798 27.591 46.1798ZM37.9493 32.0631C37.3764 31.7881 34.5806 30.4131 34.0764 30.2069C33.5493 30.0236 33.1827 29.9319 32.7931 30.4819C32.4035 31.0548 31.3264 32.3381 31.0056 32.7048C30.6848 33.0944 30.341 33.1402 29.7681 32.8423C29.1952 32.5673 27.3618 31.9486 25.2077 30.0236C23.5118 28.5111 22.3889 26.6548 22.0452 26.0819C21.7243 25.509 21.9993 25.2111 22.2973 24.9131C22.5493 24.6611 22.8702 24.2486 23.1452 23.9277C23.4202 23.6069 23.5348 23.3548 23.7181 22.9881C23.9014 22.5986 23.8098 22.2777 23.6723 22.0027C23.5348 21.7277 22.3889 18.9319 21.9306 17.7861C21.4723 16.6861 20.991 16.8236 20.6473 16.8006H19.5473C19.1577 16.8006 18.5618 16.9381 18.0348 17.5111C17.5306 18.084 16.0639 19.459 16.0639 22.2548C16.0639 25.0506 18.1035 27.7548 18.3785 28.1215C18.6535 28.5111 22.3889 34.2402 28.0723 36.6923C29.4243 37.2881 30.4785 37.6319 31.3035 37.884C32.6556 38.3194 33.8931 38.2506 34.8785 38.1131C35.9785 37.9527 38.2473 36.7381 38.7056 35.409C39.1868 34.0798 39.1868 32.9569 39.0264 32.7048C38.866 32.4527 38.5223 32.3381 37.9493 32.0631Z" fill="url(#paint0_linear_3011_37)"/>
<defs>
<linearGradient id="paint0_linear_3011_37" x1="27.4993" y1="4.58594" x2="27.4993" y2="50.4194" gradientUnits="userSpaceOnUse">
<stop stop-color="white"/>
<stop offset="1" stop-color="#999999"/>
</linearGradient>
</defs>
</svg>
