<svg width="725" height="170" viewBox="0 0 725 170" fill="none" xmlns="http://www.w3.org/2000/svg">
<path fill-rule="evenodd" clip-rule="evenodd" d="M143.748 1.38564C128.329 4.45564 118.289 9.56863 108.524 19.3266C97.419 30.4226 92.476 38.2406 76.96 69.2496C64.893 93.3646 62.086 98.2716 60.46 98.0946C59.382 97.9766 54.897 97.3866 50.493 96.7826C39.71 95.3036 27.707 96.8096 19.557 100.665C8.928 105.691 0 115.466 0 122.078C0 125.868 5.394 130.44 12.808 132.936C26.38 137.503 50.854 135.024 63.505 127.799L68.511 124.941L73.005 128.195C77.868 131.716 82.941 133.808 86.614 133.808C90.422 133.808 98.166 130.791 103.604 127.189C106.41 125.329 109.217 123.808 109.841 123.808C110.465 123.808 112.077 125.554 113.424 127.688C117.718 134.489 126.028 135.686 134.922 130.783L140.343 127.795L142.958 130.926C144.702 133.016 146.47 134.058 148.27 134.058C152.386 134.058 160.511 129.638 170.847 121.777C175.987 117.867 180.409 114.884 180.673 115.147C180.936 115.411 179.317 118.968 177.076 123.052C174.834 127.137 173 130.968 173 131.567C173 132.896 188.702 133.736 191.263 132.545C192.232 132.093 195.538 126.68 198.608 120.516C205.528 106.624 210.434 99.3206 214.56 96.7706C217.614 94.8836 222 94.1086 222 95.4566C222 95.8136 218.175 103.7 213.5 112.98C208.825 122.261 205 130.535 205 131.367C205 132.634 206.586 132.834 214.75 132.594L224.5 132.308L228.209 124.808C230.249 120.683 232.848 115.173 233.984 112.564C236.576 106.612 241.205 101.28 246.946 97.6326C251.061 95.0176 255.63 93.8136 254.817 95.5576C254.625 95.9696 252.315 100.808 249.683 106.308C242.131 122.095 241.707 127.073 247.527 131.65C253.688 136.497 260.144 135.074 275 125.594C279.125 122.962 282.802 120.808 283.171 120.808C283.539 120.808 284.116 122.06 284.452 123.591C285.413 127.965 289.133 131.484 294.73 133.315C306.779 137.255 321.993 129.348 334.466 112.661L338.687 107.014L338.219 111.882C337.706 117.22 340.062 126.057 342.82 129.141C347.648 134.538 357.776 135.259 366.627 130.837C378.573 124.867 385.992 115.993 390.06 102.808C393.261 92.4316 395.367 90.3876 402.902 90.3426C409.789 90.3016 411.072 91.0666 408.256 93.5326C404.441 96.8736 397.709 106.305 394.855 112.308C391.668 119.01 391.06 126.983 393.492 130.194C395.473 132.811 403.677 134.781 408.738 133.856C413.098 133.059 421.566 128.973 426.5 125.286C429.469 123.067 435.389 119.808 436.45 119.808C436.753 119.808 437 120.693 437 121.774C437 125.608 440.289 130.717 443.841 132.403C446.489 133.659 448.888 133.921 453.672 133.474C457.152 133.149 459.993 133.204 459.985 133.596C459.962 134.732 457.046 143.015 455.459 146.451C454.661 148.18 452.415 150.992 450.469 152.701C446.392 156.281 441.332 156.809 435.291 154.285C432.378 153.068 431.484 153.018 430.838 154.035C429.475 156.184 429.9 158.68 432.25 162.331C435.438 167.283 441.151 169.808 449.166 169.808C454.783 169.808 456.247 169.406 459.6 166.944C465.964 162.269 468.28 159.144 472.41 149.657C473.285 147.649 474 145.722 474 145.376C474 145.029 476.871 138.797 480.38 131.527C484.308 123.386 488.054 117.088 490.13 115.132C493.571 111.889 506.708 104.544 508.186 105.037C508.635 105.186 506.077 111.038 502.501 118.04C498.926 125.042 496 131.229 496 131.789C496 132.39 499.064 132.808 503.465 132.808C510.422 132.808 511.176 132.592 514.538 129.64C516.523 127.898 519.872 123.041 521.98 118.848C524.088 114.655 527.624 108.933 529.837 106.134C533.813 101.103 539.676 96.1506 540.583 97.0566C541.081 97.5556 539.226 102.148 534.121 113.057C528.104 125.913 529.31 132.84 537.814 134.277C542.115 135.003 554.717 132.013 561.119 128.748L565.029 126.753L565.966 129.22C568.944 137.052 581.476 134.965 597.454 123.977C600.728 121.725 603.587 120.062 603.806 120.281C604.026 120.5 603.034 123.238 601.603 126.365C600.171 129.491 599 132.237 599 132.465C599 132.694 603.305 132.752 608.566 132.594C619.619 132.263 618.066 133.654 625.643 117.308C628.193 111.808 631.777 105.479 633.607 103.244C636.67 99.5046 646.305 93.7796 647.509 94.9836C647.793 95.2666 645.685 100.397 642.826 106.383C636.466 119.697 635.402 126.478 639.062 130.374C642.851 134.407 647.684 135.329 654.602 133.34C657.846 132.407 662.942 130.331 665.928 128.726C668.913 127.121 671.676 125.808 672.069 125.808C672.462 125.808 673.063 126.925 673.406 128.29C674.273 131.744 679.323 134.162 684.28 133.497C686.456 133.205 690.995 131.595 694.368 129.919C700.445 126.898 716.22 115.648 716.795 113.924C716.959 113.431 716.06 111.832 714.797 110.369L712.5 107.711L709 110.337C705.115 113.252 699.71 116.177 696.204 117.262C694.208 117.879 695.219 115.354 703.935 97.9366C709.45 86.9176 713.609 77.6836 713.177 77.4176C712.123 76.7656 694.218 76.2236 693.768 76.8296C693.573 77.0926 689.998 84.3016 685.824 92.8496C677.593 109.706 675.834 111.757 665.735 116.274C658.136 119.673 656 120.187 656 118.619C656 117.891 658.954 111.27 662.565 103.904C670.504 87.7076 671.587 82.3036 667.675 78.3916C663.942 74.6586 656.141 75.0006 645.586 79.3576C644.161 79.9456 643.874 79.8206 644.464 78.8656C645.786 76.7276 643.61 76.2846 634.353 76.8076L625.5 77.3076L619.834 88.3076C615.718 96.2986 612.846 100.503 609.334 103.677C604.002 108.496 590.168 117.808 588.34 117.808C587.702 117.808 591.597 108.923 596.997 98.0626C602.397 87.2026 606.605 77.9776 606.348 77.5626C606.092 77.1476 601.675 76.8076 596.532 76.8076H587.183L579.511 92.0576C575.292 100.445 571.125 108.102 570.251 109.073C568.414 111.115 555.424 117.808 553.298 117.808C551.389 117.808 551.905 116.331 559.632 99.6746C563.134 92.1236 566 84.8296 566 83.4656C566 80.6276 561.297 76.1716 557.223 75.1486C555.774 74.7846 551.907 75.2116 548.586 76.1016C545.278 76.9876 542.469 77.6096 542.343 77.4836C542.217 77.3586 546.138 69.2766 551.057 59.5256C555.976 49.7746 560 41.1236 560 40.3016C560 39.0876 558.324 38.8076 551.05 38.8076H542.1L533.076 57.3156C523.306 77.3506 518.441 85.6206 514.209 89.3816C510.581 92.6066 501.327 97.0056 498.984 96.6186C497.269 96.3356 497.452 95.5656 501.051 87.9276C503.223 83.3186 505 78.8886 505 78.0826C505 76.8736 503.036 76.6456 493.75 76.7766C487.563 76.8646 479.786 76.6346 476.468 76.2676C472.06 75.7786 469.45 76.0106 466.773 77.1286C460.561 79.7246 452.754 86.3416 447 93.8886C438.327 105.265 434.327 109.372 427.131 114.289C417.537 120.844 411.6 120.522 413.352 113.541C414.736 108.027 428.147 94.3526 434.717 91.7576C436.808 90.9326 443.691 79.1646 442.676 78.1506C442.125 77.5996 421.218 76.3986 411.494 76.3596C405.699 76.3366 403.711 76.7866 399.993 78.9656C397.52 80.4146 394.641 82.5466 393.594 83.7036C391.053 86.5116 390.521 86.3866 388.066 82.4136C385.286 77.9166 380.56 75.8076 373.259 75.8076C365.7 75.8076 357.081 79.9106 349.855 86.9486C347.056 89.6756 344.674 91.7716 344.563 91.6066C344.452 91.4426 343.818 89.4156 343.154 87.1026C340.704 78.5686 333.323 73.7076 326.004 75.8066C324.15 76.3386 322.539 76.6686 322.425 76.5406C322.311 76.4126 324.622 71.3576 327.561 65.3076C334.043 51.9626 339 40.8566 339 39.6786C339 39.1996 334.815 38.8076 329.699 38.8076H320.399L304.142 71.0576L287.885 103.308L275.903 111.186C269.313 115.518 263.636 118.778 263.287 118.428C262.938 118.079 263.594 115.885 264.744 113.551C270.379 102.116 276.032 88.4596 276.6 84.9096C277.147 81.4866 276.866 80.5826 274.531 78.2476C272.05 75.7666 271.368 75.5926 266.198 76.1266C262.762 76.4816 257.892 78.0356 253.704 80.1146L246.841 83.5206L245.984 81.2656C243.345 74.3246 231.061 73.9566 220.685 80.5066C217.739 82.3656 216.873 82.6016 217.352 81.4136C217.709 80.5306 218.273 79.1326 218.607 78.3076C219.122 77.0346 217.715 76.8076 209.291 76.8076H199.368L197.028 82.5576C192.741 93.0936 185.96 100.612 172.546 109.7C169.272 111.918 166.383 113.524 166.127 113.269C165.872 113.013 169.564 104.943 174.331 95.3346C179.099 85.7266 183 77.6276 183 77.3366C183 77.0456 178.685 76.8076 173.41 76.8076C164.885 76.8076 163.633 77.0396 162.126 78.9006L160.431 80.9946L156.495 78.6716C153.522 76.9176 151.185 76.3816 146.947 76.4786C135.292 76.7466 127.404 82.6426 114.779 100.523C111.2 105.592 106.414 111.291 104.144 113.188C98.78 117.669 92.007 120.259 87.834 119.425C84.645 118.787 81 116.249 81 114.666C81 114.209 86.687 102.916 93.637 89.5706C100.588 76.2266 109.448 59.0076 113.327 51.3076C122.137 33.8206 125.917 27.8586 132.093 21.7156C138.785 15.0576 143.532 12.8076 150.883 12.8076C156.208 12.8076 157.175 13.1366 159.923 15.8846C163.791 19.7526 163.999 24.4276 160.563 30.2896C157.293 35.8706 148.816 41.3846 137.667 45.1836C134.948 46.1106 136.101 48.0036 141.073 50.7756C144.61 52.7476 146.907 53.2416 152.5 53.2336C158.516 53.2246 160.578 52.7026 167.17 49.5166C181.882 42.4056 187.602 33.5936 185.029 21.9996C182.419 10.2366 176.803 4.17064 165.813 1.24564C159.413 -0.458364 152.796 -0.416365 143.748 1.38564ZM707.19 43.8336C697.114 49.9766 701.011 64.8076 712.701 64.8076C718.167 64.8076 720.538 63.6016 722.49 59.8276C724.955 55.0596 724.447 49.5286 721.25 46.3266C716.347 41.4166 712.324 40.7036 707.19 43.8336ZM598.299 45.0576C593.554 50.2676 592.876 54.4526 595.96 59.5086C600.198 66.4606 608.22 67.4336 613.961 61.6926C616.506 59.1486 617 57.8696 617 53.8346C617 49.5696 616.593 48.6576 613.465 45.9116C608.884 41.8886 601.561 41.4766 598.299 45.0576ZM149 89.1286C149 96.6256 132.345 124.375 129.063 122.347C126.133 120.536 128.931 110.91 135.807 99.1366C142.902 86.9906 149 82.3646 149 89.1286ZM375.263 89.9166C374.918 94.8556 365.442 113.142 360.394 118.609C356.805 122.496 355.88 123.049 355.044 121.808C353.503 119.521 354.835 114.108 359.031 105.611C365.299 92.9166 371.511 85.0956 374.481 86.1606C375.042 86.3606 375.393 88.0516 375.263 89.9166ZM474.187 90.3176C473.489 98.8096 459.698 121.808 455.304 121.808C453.493 121.808 453.625 115.051 455.506 111.444C456.328 109.868 457 108.147 457 107.619C457 105.859 465.339 92.5906 468.653 89.0766C472.717 84.7676 474.609 85.1926 474.187 90.3176ZM324 89.0856C324 94.0406 311.447 116.406 305.715 121.663C299.667 127.21 299.805 120.131 305.994 107.308C311.364 96.1826 318.501 86.8076 321.598 86.8076C323.431 86.8076 324 87.3476 324 89.0856ZM51.842 112.689C55.491 115.002 35.267 122.809 25.029 123.04C19.175 123.172 15 122.243 15 120.809C15 119.337 20.706 115.79 26.231 113.827C31.844 111.832 49.269 111.058 51.842 112.689Z" fill="white"/>
</svg>
