<svg width="30" height="30" viewBox="0 0 30 30" fill="none" xmlns="http://www.w3.org/2000/svg">
<g clip-path="url(#clip0_3273_502)">
<path d="M15.5857 8.98571L17.7571 6.81429C18.8429 5.72857 21.0143 5.72857 22.1 6.81429L23.1857 7.9C24.2714 8.98571 24.2714 11.1571 23.1857 12.2429L17.7571 17.6714C16.6714 18.7571 14.5 18.7571 13.4143 17.6714M13.4143 22.0143L11.2429 24.1857C10.1571 25.2714 7.98571 25.2714 6.9 24.1857L5.81429 23.1C4.72857 22.0143 4.72857 19.8429 5.81429 18.7571L11.2429 13.3286C12.3286 12.2429 14.5 12.2429 15.5857 13.3286" stroke="#4B88FF" stroke-width="2" stroke-linecap="round" stroke-linejoin="round"/>
<circle cx="15" cy="15" r="15" fill="#D9D9D9" fill-opacity="0.05"/>
</g>
<defs>
<clipPath id="clip0_3273_502">
<rect width="30" height="30" rx="3" fill="white"/>
</clipPath>
</defs>
</svg>
