<svg width="236" height="109" viewBox="0 0 236 109" fill="none" xmlns="http://www.w3.org/2000/svg">
<line y1="-0.5" x2="77" y2="-0.5" transform="matrix(1.11925e-07 1 1 -1.70712e-08 175 32)" stroke="url(#paint0_linear_3179_955)"/>
<line y1="-0.5" x2="44" y2="-0.5" transform="matrix(1.96073e-07 1 1 -9.74483e-09 75 65)" stroke="url(#paint1_linear_3179_955)"/>
<line y1="-0.5" x2="59" y2="-0.5" transform="matrix(1.44905e-07 1 1 -1.31859e-08 126 50)" stroke="url(#paint2_linear_3179_955)"/>
<line y1="-0.5" x2="104" y2="-0.5" transform="matrix(8.27166e-08 1 1 -2.30993e-08 224 5)" stroke="url(#paint3_linear_3179_955)"/>
<line y1="-0.5" x2="33" y2="-0.5" transform="matrix(2.57145e-07 1 1 -7.43043e-09 26 76)" stroke="url(#paint4_linear_3179_955)"/>
<line y1="-0.5" x2="73" y2="-0.5" transform="matrix(-1.11925e-07 1 1 1.70712e-08 163 36)" stroke="url(#paint5_linear_3179_955)"/>
<line y1="-0.5" x2="42" y2="-0.5" transform="matrix(-1.93559e-07 1 1 9.87136e-09 63 67)" stroke="url(#paint6_linear_3179_955)"/>
<line y1="-0.5" x2="56" y2="-0.5" transform="matrix(-1.45284e-07 1 1 1.31514e-08 113 53)" stroke="url(#paint7_linear_3179_955)"/>
<line y1="-0.5" x2="97" y2="-0.5" transform="matrix(-3.87544e-08 1 1 3.87544e-08 212 12)" stroke="url(#paint8_linear_3179_955)"/>
<line y1="-0.5" x2="32" y2="-0.5" transform="matrix(-2.52008e-07 1 1 7.58185e-09 14 77)" stroke="url(#paint9_linear_3179_955)"/>
<line y1="-0.5" x2="68" y2="-0.5" transform="matrix(-1.12218e-07 1 1 1.70266e-08 150 41)" stroke="url(#paint10_linear_3179_955)"/>
<line y1="-0.5" x2="39" y2="-0.5" transform="matrix(-1.93559e-07 1 1 9.87136e-09 51 70)" stroke="url(#paint11_linear_3179_955)"/>
<line y1="-0.5" x2="52" y2="-0.5" transform="matrix(-1.44904e-07 1 1 1.31858e-08 100 57)" stroke="url(#paint12_linear_3179_955)"/>
<line y1="-0.5" x2="92" y2="-0.5" transform="matrix(-8.29323e-08 1 1 2.30391e-08 199 17)" stroke="url(#paint13_linear_3179_955)"/>
<line y1="-0.5" x2="30" y2="-0.5" transform="matrix(-2.53847e-07 1 1 7.52691e-09 1 79)" stroke="url(#paint14_linear_3179_955)"/>
<line y1="-0.5" x2="61" y2="-0.5" transform="matrix(-1.11925e-07 1 1 1.70712e-08 138 48)" stroke="url(#paint15_linear_3179_955)"/>
<line y1="-0.5" x2="109" y2="-0.5" transform="matrix(-6.32359e-08 1 1 3.02152e-08 236 0)" stroke="url(#paint16_linear_3179_955)"/>
<line y1="-0.5" x2="35" y2="-0.5" transform="matrix(-1.93558e-07 1 1 9.87136e-09 38 74)" stroke="url(#paint17_linear_3179_955)"/>
<line y1="-0.5" x2="47" y2="-0.5" transform="matrix(-1.44117e-07 1 1 1.32579e-08 88 62)" stroke="url(#paint18_linear_3179_955)"/>
<line y1="-0.5" x2="83" y2="-0.5" transform="matrix(-8.22668e-08 1 1 2.32255e-08 187 26)" stroke="url(#paint19_linear_3179_955)"/>
<defs>
<linearGradient id="paint0_linear_3179_955" x1="0" y1="0.5" x2="77" y2="0.5" gradientUnits="userSpaceOnUse">
<stop stop-color="white"/>
<stop offset="1" stop-color="#999999" stop-opacity="0"/>
</linearGradient>
<linearGradient id="paint1_linear_3179_955" x1="0" y1="0.5" x2="44" y2="0.5" gradientUnits="userSpaceOnUse">
<stop stop-color="white"/>
<stop offset="1" stop-color="#999999" stop-opacity="0"/>
</linearGradient>
<linearGradient id="paint2_linear_3179_955" x1="0" y1="0.5" x2="59" y2="0.5" gradientUnits="userSpaceOnUse">
<stop stop-color="white"/>
<stop offset="1" stop-color="#999999" stop-opacity="0"/>
</linearGradient>
<linearGradient id="paint3_linear_3179_955" x1="0" y1="0.5" x2="104" y2="0.5" gradientUnits="userSpaceOnUse">
<stop stop-color="white"/>
<stop offset="1" stop-color="#999999" stop-opacity="0"/>
</linearGradient>
<linearGradient id="paint4_linear_3179_955" x1="0" y1="0.5" x2="33" y2="0.5" gradientUnits="userSpaceOnUse">
<stop stop-color="white"/>
<stop offset="1" stop-color="#999999" stop-opacity="0"/>
</linearGradient>
<linearGradient id="paint5_linear_3179_955" x1="0" y1="0.5" x2="73" y2="0.5" gradientUnits="userSpaceOnUse">
<stop stop-color="white"/>
<stop offset="1" stop-color="#999999" stop-opacity="0"/>
</linearGradient>
<linearGradient id="paint6_linear_3179_955" x1="0" y1="0.5" x2="42" y2="0.5" gradientUnits="userSpaceOnUse">
<stop stop-color="white"/>
<stop offset="1" stop-color="#999999" stop-opacity="0"/>
</linearGradient>
<linearGradient id="paint7_linear_3179_955" x1="0" y1="0.5" x2="56" y2="0.5" gradientUnits="userSpaceOnUse">
<stop stop-color="white"/>
<stop offset="1" stop-color="#999999" stop-opacity="0"/>
</linearGradient>
<linearGradient id="paint8_linear_3179_955" x1="0" y1="0.5" x2="97" y2="0.5" gradientUnits="userSpaceOnUse">
<stop stop-color="white"/>
<stop offset="1" stop-color="#999999" stop-opacity="0"/>
</linearGradient>
<linearGradient id="paint9_linear_3179_955" x1="0" y1="0.5" x2="32" y2="0.5" gradientUnits="userSpaceOnUse">
<stop stop-color="white"/>
<stop offset="1" stop-color="#999999" stop-opacity="0"/>
</linearGradient>
<linearGradient id="paint10_linear_3179_955" x1="0" y1="0.5" x2="68" y2="0.5" gradientUnits="userSpaceOnUse">
<stop stop-color="white"/>
<stop offset="1" stop-color="#999999" stop-opacity="0"/>
</linearGradient>
<linearGradient id="paint11_linear_3179_955" x1="0" y1="0.5" x2="39" y2="0.5" gradientUnits="userSpaceOnUse">
<stop stop-color="white"/>
<stop offset="1" stop-color="#999999" stop-opacity="0"/>
</linearGradient>
<linearGradient id="paint12_linear_3179_955" x1="0" y1="0.5" x2="52" y2="0.5" gradientUnits="userSpaceOnUse">
<stop stop-color="white"/>
<stop offset="1" stop-color="#999999" stop-opacity="0"/>
</linearGradient>
<linearGradient id="paint13_linear_3179_955" x1="0" y1="0.5" x2="92" y2="0.5" gradientUnits="userSpaceOnUse">
<stop stop-color="white"/>
<stop offset="1" stop-color="#999999" stop-opacity="0"/>
</linearGradient>
<linearGradient id="paint14_linear_3179_955" x1="0" y1="0.5" x2="30" y2="0.5" gradientUnits="userSpaceOnUse">
<stop stop-color="white"/>
<stop offset="1" stop-color="#999999" stop-opacity="0"/>
</linearGradient>
<linearGradient id="paint15_linear_3179_955" x1="0" y1="0.5" x2="61" y2="0.5" gradientUnits="userSpaceOnUse">
<stop stop-color="white"/>
<stop offset="1" stop-color="#999999" stop-opacity="0"/>
</linearGradient>
<linearGradient id="paint16_linear_3179_955" x1="0" y1="0.5" x2="109" y2="0.5" gradientUnits="userSpaceOnUse">
<stop stop-color="white"/>
<stop offset="1" stop-color="#999999" stop-opacity="0"/>
</linearGradient>
<linearGradient id="paint17_linear_3179_955" x1="0" y1="0.5" x2="35" y2="0.5" gradientUnits="userSpaceOnUse">
<stop stop-color="white"/>
<stop offset="1" stop-color="#999999" stop-opacity="0"/>
</linearGradient>
<linearGradient id="paint18_linear_3179_955" x1="0" y1="0.5" x2="47" y2="0.5" gradientUnits="userSpaceOnUse">
<stop stop-color="white"/>
<stop offset="1" stop-color="#999999" stop-opacity="0"/>
</linearGradient>
<linearGradient id="paint19_linear_3179_955" x1="0" y1="0.5" x2="83" y2="0.5" gradientUnits="userSpaceOnUse">
<stop stop-color="white"/>
<stop offset="1" stop-color="#999999" stop-opacity="0"/>
</linearGradient>
</defs>
</svg>
