<svg width="160" height="118" viewBox="0 0 160 118" fill="none" xmlns="http://www.w3.org/2000/svg">
<path fill-rule="evenodd" clip-rule="evenodd" d="M19 2C19 3.833 19.667 4 27 4H35V29.5C35 54.333 35.052 55 37 55C38.948 55 39 54.333 39 29.5V4H47C54.333 4 55 3.833 55 2C55 0.074 54.333 0 37 0C19.667 0 19 0.074 19 2ZM64 27.5C64 54.333 64.048 55 66 55C67.897 55 68 54.333 68 42V29H83H98V42C98 54.333 98.103 55 100 55C101.952 55 102 54.333 102 27.5C102 0.667 101.952 0 100 0C98.107 0 98 0.667 98 12.5V25H83H68V12.5C68 0.667 67.893 0 66 0C64.048 0 64 0.667 64 27.5ZM112 27.5V55H126.5C140.333 55 141 54.908 141 53C141 51.107 140.333 51 128.5 51H116V40V29H126C135.333 29 136 28.867 136 27C136 25.133 135.333 25 126 25H116V14.5V4H128.5C140.333 4 141 3.893 141 2C141 0.092 140.333 0 126.5 0H112V27.5ZM0 90.5V118H14.5C28.333 118 29 117.908 29 116C29 114.107 28.333 114 16.5 114H4V88.5C4 63.667 3.948 63 2 63C0.048 63 0 63.667 0 90.5ZM66.346 67.25C64.873 69.588 57.004 81.991 48.859 94.814C35.667 115.583 34.321 118.094 36.533 117.814C38.423 117.575 40.502 115.236 45.257 108C51.275 98.843 51.684 98.451 56.612 97.142C61.308 95.895 62.102 95.952 66.362 97.836L71 99.888V108.944C71 116.327 71.277 118 72.5 118C73.709 118 74 116.439 74 109.955V101.909L77.75 102.686C79.813 103.113 83.188 103.368 85.25 103.254L89 103.046V110.523C89 117.333 89.178 118 91 118C92.853 118 93.003 117.32 93.041 108.75C93.078 100.161 93.275 99.275 95.791 96.358L98.5 93.217L108.75 105.608C115.623 113.917 119.659 118 121 118C122.1 118 123 117.749 123 117.443C123 116.999 109.013 99.726 102.238 91.803C100.929 90.273 101.827 88.834 111.393 77.131C117.227 69.994 122 63.895 122 63.577C122 63.26 120.988 63.022 119.75 63.049C118.069 63.086 114.467 66.929 105.5 78.251L93.5 93.404L93.224 78.202C92.964 63.889 92.834 63 90.997 63C89.146 63 89.032 63.909 88.773 80.75L88.5 98.5L84.996 99.366C82.451 99.995 80.467 99.804 77.746 98.667L74 97.102V80.051V63H71.513C69.673 63 68.327 64.107 66.346 67.25ZM131 90.5V118H145.5C159.333 118 160 117.908 160 116C160 114.107 159.333 114 147.5 114H135V103V92H145C154.333 92 155 91.867 155 90C155 88.133 154.333 88 145 88H135V77.5V67H147.5C159.333 67 160 66.893 160 65C160 63.092 159.333 63 145.5 63H131V90.5ZM71 82.107C71 94.21 70.866 95.156 69.25 94.46C68.287 94.046 64.699 93.496 61.276 93.239C55.358 92.793 55.107 92.669 56.155 90.711C58.323 86.66 69.979 69 70.484 69C70.768 69 71 74.898 71 82.107Z" fill="white"/>
</svg>
