<svg width="147" height="48" viewBox="0 0 147 48" fill="none" xmlns="http://www.w3.org/2000/svg">
<rect x="0.5" y="0.5" width="146" height="47" rx="23.5" stroke="white"/>
<path d="M15.6152 17.3965H16.8721L20.6338 27.0117L24.2549 17.2207L27.8672 27.0117L31.6465 17.3965H32.8945L27.8496 30.1758L24.2549 20.4023L20.6514 30.1758L15.6152 17.3965ZM33.2197 25.377C33.2197 24.4277 33.4365 23.5752 33.8701 22.8193C34.3096 22.0635 34.8926 21.4834 35.6191 21.0791C36.3516 20.6689 37.1514 20.4639 38.0186 20.4639C38.7217 20.4639 39.3691 20.5898 39.9609 20.8418C40.5527 21.0938 41.0479 21.4365 41.4463 21.8701C41.8447 22.3037 42.1523 22.8076 42.3691 23.3818C42.5918 23.9561 42.7031 24.5654 42.7031 25.21V25.7373H34.3711C34.4414 26.7744 34.8193 27.6094 35.5049 28.2422C36.1963 28.875 37.0488 29.1914 38.0625 29.1914C38.6484 29.1914 39.1816 29.0771 39.6621 28.8486C40.1484 28.6201 40.5381 28.333 40.8311 27.9873L41.6045 28.7256C41.1768 29.2119 40.6582 29.5869 40.0488 29.8506C39.4395 30.1084 38.7773 30.2373 38.0625 30.2373C37.1367 30.2373 36.3018 30.0264 35.5576 29.6045C34.8193 29.1768 34.2451 28.5938 33.835 27.8555C33.4248 27.1113 33.2197 26.2852 33.2197 25.377ZM34.3887 24.709H41.5518C41.5459 24.1113 41.3848 23.5664 41.0684 23.0742C40.7578 22.582 40.333 22.1982 39.7939 21.9229C39.2549 21.6416 38.6631 21.501 38.0186 21.501C37.0928 21.501 36.29 21.791 35.6104 22.3711C34.9365 22.9453 34.5293 23.7246 34.3887 24.709ZM45.1816 21.3779L45.9023 17.3965H47.0889L46.2979 21.3779H45.1816ZM50.3057 30V20.6924H54.8584V21.7734H51.4395V30H50.3057ZM56.5459 25.377C56.5459 24.4277 56.7627 23.5752 57.1963 22.8193C57.6357 22.0635 58.2188 21.4834 58.9453 21.0791C59.6777 20.6689 60.4775 20.4639 61.3447 20.4639C62.0479 20.4639 62.6953 20.5898 63.2871 20.8418C63.8789 21.0938 64.374 21.4365 64.7725 21.8701C65.1709 22.3037 65.4785 22.8076 65.6953 23.3818C65.918 23.9561 66.0293 24.5654 66.0293 25.21V25.7373H57.6973C57.7676 26.7744 58.1455 27.6094 58.8311 28.2422C59.5225 28.875 60.375 29.1914 61.3887 29.1914C61.9746 29.1914 62.5078 29.0771 62.9883 28.8486C63.4746 28.6201 63.8643 28.333 64.1572 27.9873L64.9307 28.7256C64.5029 29.2119 63.9844 29.5869 63.375 29.8506C62.7656 30.1084 62.1035 30.2373 61.3887 30.2373C60.4629 30.2373 59.6279 30.0264 58.8838 29.6045C58.1455 29.1768 57.5713 28.5938 57.1611 27.8555C56.751 27.1113 56.5459 26.2852 56.5459 25.377ZM57.7148 24.709H64.8779C64.8721 24.1113 64.7109 23.5664 64.3945 23.0742C64.084 22.582 63.6592 22.1982 63.1201 21.9229C62.5811 21.6416 61.9893 21.501 61.3447 21.501C60.4189 21.501 59.6162 21.791 58.9365 22.3711C58.2627 22.9453 57.8555 23.7246 57.7148 24.709ZM74.3877 30V17.3965H75.5215V23.0303H82.7197V17.3965H83.8535V30H82.7197V24.1465H75.5215V30H74.3877ZM87.6504 18.7324C87.4746 18.5449 87.3867 18.3223 87.3867 18.0645C87.3867 17.8066 87.4746 17.5869 87.6504 17.4053C87.832 17.2236 88.0518 17.1328 88.3096 17.1328C88.585 17.1328 88.8076 17.2236 88.9775 17.4053C89.1533 17.5811 89.2412 17.8008 89.2412 18.0645C89.2412 18.3281 89.1533 18.5508 88.9775 18.7324C88.8018 18.9141 88.5791 19.0049 88.3096 19.0049C88.0518 19.0049 87.832 18.9141 87.6504 18.7324ZM87.7646 30V20.6924H88.8809V30H87.7646ZM92.5986 30V20.6924H97.1514V21.7734H93.7324V30H92.5986ZM99.9551 18.7324C99.7793 18.5449 99.6914 18.3223 99.6914 18.0645C99.6914 17.8066 99.7793 17.5869 99.9551 17.4053C100.137 17.2236 100.356 17.1328 100.614 17.1328C100.89 17.1328 101.112 17.2236 101.282 17.4053C101.458 17.5811 101.546 17.8008 101.546 18.0645C101.546 18.3281 101.458 18.5508 101.282 18.7324C101.106 18.9141 100.884 19.0049 100.614 19.0049C100.356 19.0049 100.137 18.9141 99.9551 18.7324ZM100.069 30V20.6924H101.186V30H100.069ZM104.903 30V20.71H106.011V21.9316C106.216 21.5566 106.573 21.2197 107.083 20.9209C107.593 20.6162 108.196 20.4639 108.894 20.4639C109.995 20.4639 110.897 20.8242 111.601 21.5449C112.304 22.2656 112.655 23.165 112.655 24.2432V30H111.539V24.2783C111.539 23.499 111.272 22.8486 110.739 22.3271C110.212 21.7998 109.567 21.5361 108.806 21.5361C108.026 21.5361 107.364 21.8027 106.819 22.3359C106.28 22.8633 106.011 23.5107 106.011 24.2783V30H104.903ZM115.521 27.3018C115.274 26.6982 115.151 26.0508 115.151 25.3594C115.151 24.668 115.277 24.0205 115.529 23.417C115.781 22.8076 116.124 22.2891 116.558 21.8613C116.991 21.4277 117.507 21.0879 118.104 20.8418C118.708 20.5898 119.35 20.4639 120.029 20.4639C120.785 20.4639 121.482 20.6104 122.121 20.9033C122.766 21.1963 123.311 21.6064 123.756 22.1338V20.6924H124.89V34.1396H118.008V33.0938H123.756V28.5586C123.305 29.0859 122.757 29.499 122.112 29.7979C121.474 30.0908 120.779 30.2373 120.029 30.2373C119.35 30.2373 118.708 30.1143 118.104 29.8682C117.501 29.6221 116.982 29.2852 116.549 28.8574C116.115 28.4238 115.772 27.9053 115.521 27.3018ZM116.285 25.3594C116.285 26.4609 116.643 27.3721 117.357 28.0928C118.072 28.8135 118.963 29.1738 120.029 29.1738C121.078 29.1738 121.96 28.8135 122.675 28.0928C123.396 27.3662 123.756 26.4551 123.756 25.3594C123.756 24.2695 123.396 23.3613 122.675 22.6348C121.954 21.9023 121.072 21.5361 120.029 21.5361C118.963 21.5361 118.072 21.8994 117.357 22.626C116.643 23.3525 116.285 24.2637 116.285 25.3594ZM128.449 29.9736C128.273 29.7979 128.186 29.584 128.186 29.332C128.186 29.0801 128.273 28.8691 128.449 28.6992C128.625 28.5234 128.839 28.4355 129.091 28.4355C129.343 28.4355 129.557 28.5234 129.732 28.6992C129.914 28.8691 130.005 29.0801 130.005 29.332C130.005 29.584 129.914 29.7979 129.732 29.9736C129.557 30.1494 129.343 30.2373 129.091 30.2373C128.839 30.2373 128.625 30.1494 128.449 29.9736ZM128.511 26.4756V17.3965H129.627V26.4756H128.511Z" fill="white"/>
</svg>
